SplineFontDB: 3.0
FontName: DOF-1-Extended
FullName: DOF-1-Extended
FamilyName: DOF-1
Weight: Extended

StartChar: exclam
Encoding: 33 33 1
Width: 506
VWidth: 910
Flags: HW
LayerCount: 2
Fore
SplineSet
236 818 m 0
 261 822 291 816 301 806 c 2
 304 804 l 1
 304 454 l 1
 304 104 l 1
 301 101 l 2
 298 97 290 93 280 91 c 0
 274 89 270 89 254 89 c 0
 237 89 233 89 227 91 c 0
 217 93 209 97 206 101 c 2
 203 104 l 1
 203 453 l 1
 203 803 l 1
 206 806 l 2
 211 811 221 815 236 818 c 0
237 36 m 0
 241 36 249 37 257 37 c 0
 269 36 272 37 280 35 c 0
 291 31 297 29 301 24 c 0
 305 20 305 18 301 14 c 0
 297 9 291 7 280 3 c 0
 271 1 269 1 253 1 c 0
 237 1 235 1 227 3 c 0
 222 5 215 6 212 8 c 0
 207 11 202 15 202 18 c 0
 202 22 205 25 210 28 c 0
 215 31 229 35 237 36 c 0
EndSplineSet
EndChar

StartChar: quotedbl
Encoding: 34 34 2
Width: 506
VWidth: 910
Flags: HW
LayerCount: 2
Fore
SplineSet
165 818 m 0
 190 822 220 816 230 806 c 2
 233 804 l 1
 233 700 l 1
 233 596 l 1
 230 593 l 2
 227 589 219 586 209 583 c 0
 202 581 198 581 183 581 c 0
 167 581 163 581 157 583 c 0
 146 586 138 589 135 593 c 2
 132 596 l 1
 132 699 l 1
 132 803 l 1
 135 806 l 2
 140 811 150 815 165 818 c 0
306 818 m 0
 331 822 361 816 371 806 c 2
 374 804 l 1
 374 700 l 1
 374 596 l 1
 371 593 l 2
 368 589 360 586 350 583 c 0
 343 581 339 581 324 581 c 0
 308 581 304 581 298 583 c 0
 287 586 279 589 276 593 c 2
 273 596 l 1
 273 699 l 1
 273 803 l 1
 276 806 l 2
 281 811 291 815 306 818 c 0
EndSplineSet
EndChar

StartChar: numbersign
Encoding: 35 35 3
Width: 1011
VWidth: 910
Flags: HW
LayerCount: 2
Fore
SplineSet
419 613 m 0
 434 615 455 614 467 610 c 0
 479 607 485 601 485 596 c 0
 485 594 472 567 445 512 c 0
 423 466 405 430 405 429 c 2
 565 429 l 1
 726 429 l 1
 758 493 l 2
 816 612 811 601 816 604 c 0
 833 616 878 618 900 607 c 0
 905 604 910 599 910 596 c 0
 910 594 892 558 869 512 c 0
 847 466 829 430 829 429 c 2
 874 429 l 2
 899 429 922 429 926 428 c 0
 953 424 967 413 958 404 c 0
 953 399 941 394 926 392 c 0
 922 391 895 391 865 391 c 2
 811 391 l 1
 770 308 l 1
 728 224 l 2
 728 223 747 223 773 223 c 0
 819 223 828 222 840 218 c 0
 851 215 859 209 859 204 c 0
 859 199 851 193 840 190 c 0
 827 185 820 186 764 186 c 2
 709 186 l 1
 667 99 l 2
 635 35 625 13 623 11 c 0
 608 -2 558 -4 535 8 c 0
 530 11 526 14 526 18 c 0
 526 20 539 48 566 103 c 0
 588 149 606 185 606 186 c 2
 446 186 l 1
 285 186 l 1
 253 121 l 2
 195 2 201 13 196 10 c 0
 179 -2 133 -4 111 7 c 0
 106 10 101 15 101 18 c 0
 101 20 119 57 142 103 c 0
 164 149 182 185 182 186 c 2
 137 186 l 2
 112 186 90 186 86 187 c 0
 59 191 45 201 54 210 c 0
 59 215 71 220 86 222 c 0
 90 223 117 223 147 223 c 2
 201 223 l 1
 242 307 l 2
 264 353 283 390 283 390 c 2
 283 391 264 391 238 391 c 0
 192 391 183 392 171 396 c 0
 160 399 152 406 152 411 c 0
 152 416 160 421 171 424 c 0
 184 429 192 429 248 429 c 2
 302 429 l 1
 344 515 l 2
 376 579 387 601 390 603 c 0
 395 608 406 611 419 613 c 0
707 390 m 2
 707 391 635 391 547 391 c 2
 386 391 l 1
 345 308 l 2
 322 262 304 224 304 224 c 2
 304 223 376 223 464 223 c 2
 625 223 l 1
 666 307 l 2
 689 353 707 390 707 390 c 2
EndSplineSet
EndChar

StartChar: dollar
Encoding: 36 36 4
Width: 910
VWidth: 910
Flags: HW
LayerCount: 2
Fore
SplineSet
438 818 m 0
 463 822 493 816 503 806 c 2
 506 804 l 1
 506 766 l 1
 506 728 l 1
 509 728 l 2
 511 727 521 727 531 727 c 0
 575 725 626 720 662 713 c 0
 751 695 798 669 807 634 c 0
 808 629 809 625 809 622 c 0
 809 618 809 616 806 613 c 0
 801 607 788 604 770 602 c 0
 745 599 719 604 712 613 c 0
 709 616 708 618 708 623 c 0
 705 648 684 662 634 675 c 0
 600 683 566 688 523 690 c 2
 506 690 l 1
 506 560 l 1
 506 430 l 1
 540 430 l 2
 576 429 592 428 617 425 c 0
 689 417 738 399 770 368 c 0
 785 353 795 336 801 317 c 0
 811 286 812 250 804 225 c 0
 797 203 778 178 758 161 c 0
 721 131 659 109 588 99 c 0
 563 95 524 92 510 92 c 2
 506 92 l 1
 506 54 l 1
 506 15 l 1
 503 13 l 2
 486 -4 423 -3 408 13 c 2
 405 16 l 1
 405 54 l 1
 405 91 l 1
 402 91 l 2
 400 92 391 92 381 92 c 0
 297 95 215 109 164 131 c 0
 125 148 104 170 102 196 c 0
 102 202 102 202 105 206 c 0
 111 212 123 216 141 218 c 0
 166 221 192 215 199 206 c 0
 202 203 203 202 203 197 c 0
 204 185 210 175 220 167 c 0
 247 147 313 132 387 129 c 2
 405 129 l 1
 405 259 l 1
 405 390 l 1
 368 390 l 2
 329 391 314 391 288 394 c 0
 216 402 167 420 135 451 c 0
 112 475 100 503 96 541 c 0
 91 582 104 614 132 644 c 0
 147 659 162 670 184 680 c 0
 236 706 302 721 385 726 c 2
 405 727 l 1
 405 765 l 1
 405 803 l 1
 408 806 l 2
 413 811 423 815 438 818 c 0
405 559 m 1
 405 690 l 1
 402 690 l 2
 398 690 396 689 380 688 c 0
 325 683 276 668 246 647 c 0
 227 632 210 613 203 593 c 0
 198 580 197 573 198 555 c 0
 198 516 208 486 229 465 c 0
 257 437 297 427 383 427 c 2
 405 427 l 1
 405 559 l 1
562 391 m 0
 552 392 535 392 525 392 c 2
 506 392 l 1
 506 260 l 1
 506 129 l 1
 512 130 l 1
 569 134 606 143 641 161 c 0
 674 177 696 205 705 237 c 0
 707 245 707 247 707 263 c 0
 707 277 707 283 705 291 c 0
 700 318 690 339 675 354 c 0
 651 378 620 388 562 391 c 0
EndSplineSet
EndChar

StartChar: percent
Encoding: 37 37 5
Width: 1112
VWidth: 910
Flags: HW
LayerCount: 2
Fore
SplineSet
238 824 m 0
 240 825 250 825 260 824 c 0
 273 824 280 824 285 822 c 0
 311 817 318 804 299 795 c 0
 291 791 278 788 262 787 c 0
 247 786 241 785 229 780 c 0
 191 764 166 725 157 669 c 0
 149 625 152 563 163 523 c 0
 172 491 189 462 206 447 c 0
 219 435 235 426 250 421 c 0
 263 418 277 421 293 431 c 0
 321 448 341 477 354 517 c 0
 361 542 367 579 367 610 c 0
 367 620 367 620 370 623 c 0
 378 632 404 638 428 635 c 0
 447 633 460 629 465 623 c 0
 468 620 468 620 468 609 c 0
 468 576 462 537 454 512 c 0
 430 437 379 397 299 385 c 0
 284 383 243 383 228 385 c 0
 169 392 123 415 96 451 c 0
 90 459 80 476 75 485 c 0
 60 518 53 555 51 605 c 0
 49 679 65 731 100 768 c 0
 130 801 176 819 238 824 c 0
993 818 m 0
 1001 819 1018 819 1027 818 c 0
 1052 814 1066 805 1059 796 c 0
 1055 791 148 11 144 8 c 0
 132 2 106 -2 86 1 c 0
 61 5 46 15 53 24 c 0
 58 29 965 809 970 811 c 0
 975 814 983 816 993 818 c 0
828 435 m 0
 850 437 872 436 885 431 c 0
 901 426 907 418 900 411 c 0
 894 404 880 401 857 399 c 0
 843 398 837 395 826 390 c 0
 811 383 797 373 787 360 c 0
 760 325 747 280 745 215 c 0
 743 149 758 100 786 66 c 0
 798 52 813 41 831 36 c 0
 841 32 842 33 854 32 c 0
 869 32 872 33 884 38 c 0
 917 54 939 84 951 127 c 0
 956 144 960 176 960 197 c 0
 960 204 960 205 963 208 c 0
 966 212 974 215 984 218 c 0
 990 220 993 219 1011 219 c 0
 1028 219 1032 220 1038 218 c 0
 1048 215 1056 212 1059 208 c 0
 1062 205 1061 205 1061 196 c 0
 1061 174 1057 144 1052 124 c 0
 1038 75 1011 39 968 17 c 0
 953 10 942 6 925 2 c 0
 904 -3 894 -4 868 -5 c 0
 824 -6 796 -3 765 8 c 0
 724 21 694 43 674 76 c 0
 652 111 643 155 644 215 c 0
 645 249 649 274 656 299 c 0
 663 325 675 350 690 370 c 0
 719 407 767 430 828 435 c 0
EndSplineSet
EndChar

StartChar: ampersand
Encoding: 38 38 6
Width: 910
VWidth: 910
Flags: HW
LayerCount: 2
Fore
SplineSet
414 824 m 0
 421 824 438 825 452 825 c 0
 567 826 653 800 704 751 c 0
 739 718 758 670 758 619 c 0
 758 527 704 469 587 434 c 0
 553 424 527 418 454 403 c 0
 409 394 380 388 379 388 c 1
 379 387 395 368 409 353 c 0
 499 251 612 154 709 93 c 0
 724 84 722 84 727 92 c 0
 731 98 733 107 733 112 c 0
 733 116 732 116 736 120 c 0
 744 127 761 131 784 131 c 0
 806 131 822 127 830 120 c 0
 834 116 834 116 834 111 c 0
 834 104 831 93 826 85 c 0
 821 76 808 62 798 55 c 0
 793 52 790 50 790 50 c 2
 790 49 812 42 820 39 c 0
 825 38 831 37 836 37 c 0
 851 37 865 35 875 30 c 0
 889 24 889 13 875 7 c 0
 862 2 848 0 823 0 c 0
 794 1 765 6 735 17 c 2
 721 22 l 1
 701 17 l 2
 656 6 612 0 551 -4 c 0
 524 -6 439 -6 415 -5 c 0
 332 -1 270 14 220 39 c 0
 181 59 155 82 135 112 c 0
 114 143 104 177 102 215 c 0
 100 282 128 333 187 369 c 0
 204 379 235 394 257 400 c 0
 260 401 261 402 260 402 c 1
 260 403 255 409 250 416 c 0
 221 454 194 495 177 530 c 0
 156 573 149 603 153 637 c 0
 158 691 183 735 224 765 c 0
 269 799 334 819 414 824 c 0
499 786 m 0
 485 787 440 787 425 786 c 0
 402 784 383 781 365 776 c 0
 350 771 329 759 317 751 c 0
 306 744 291 729 284 718 c 0
 277 708 267 689 263 676 c 0
 255 652 251 624 255 603 c 0
 260 561 290 503 340 435 c 2
 349 424 l 1
 404 436 l 2
 484 451 504 457 534 467 c 0
 596 488 632 517 648 562 c 0
 656 583 659 614 656 639 c 0
 651 678 636 711 611 735 c 0
 600 747 588 756 571 765 c 0
 549 776 527 782 499 786 c 0
305 350 m 1
 295 360 l 2
 294 360 288 358 283 355 c 0
 252 338 232 319 219 294 c 0
 211 278 207 263 204 243 c 0
 199 192 214 139 247 102 c 0
 270 76 308 55 349 44 c 0
 378 36 403 33 450 32 c 0
 536 31 599 36 649 49 c 2
 659 52 l 1
 648 57 l 1
 542 118 407 233 305 350 c 1
EndSplineSet
EndChar

StartChar: parenleft
Encoding: 40 40 7
Width: 354
VWidth: 910
Flags: HW
LayerCount: 2
Fore
SplineSet
231 869 m 0
 262 872 290 867 300 857 c 0
 310 847 295 837 267 834 c 0
 257 833 254 831 244 823 c 0
 201 789 167 688 157 562 c 0
 150 478 150 342 157 259 c 0
 167 132 201 30 244 -4 c 0
 254 -12 257 -14 267 -15 c 0
 302 -19 314 -34 292 -44 c 0
 267 -56 213 -51 179 -36 c 0
 131 -14 99 36 76 128 c 0
 58 203 51 279 51 410 c 0
 51 541 58 616 76 691 c 0
 99 783 131 834 179 856 c 0
 194 862 213 867 231 869 c 0
EndSplineSet
EndChar

StartChar: parenright
Encoding: 41 41 8
Width: 354
VWidth: 910
Flags: HW
LayerCount: 2
Fore
SplineSet
85 869 m 0
 100 871 122 871 140 867 c 0
 209 854 250 802 278 691 c 0
 296 616 303 541 303 410 c 0
 303 279 296 203 278 128 c 0
 255 36 223 -14 175 -36 c 0
 135 -54 71 -55 54 -38 c 0
 44 -28 59 -18 87 -15 c 0
 97 -14 100 -12 110 -4 c 0
 153 30 187 132 197 259 c 0
 204 342 204 478 197 562 c 0
 187 688 153 789 110 823 c 0
 100 831 97 833 87 834 c 0
 65 837 51 843 51 852 c 0
 51 859 66 866 85 869 c 0
EndSplineSet
EndChar

StartChar: asterisk
Encoding: 42 42 9
Width: 809
VWidth: 910
Flags: HW
LayerCount: 2
Fore
SplineSet
387 818 m 0
 412 822 442 816 452 806 c 2
 455 804 l 1
 455 770 l 2
 455 752 455 737 456 737 c 2
 456 737 461 740 466 743 c 0
 471 747 479 749 481 750 c 0
 520 764 580 749 563 731 c 0
 561 729 540 716 512 700 c 0
 486 685 465 673 466 673 c 1
 466 672 488 660 513 645 c 0
 538 630 561 617 563 615 c 0
 565 613 565 613 565 609 c 0
 565 606 565 606 562 602 c 0
 555 596 542 592 520 591 c 0
 495 590 482 593 466 603 c 2
 456 609 l 1
 455 575 l 1
 455 542 l 1
 451 538 l 2
 444 531 426 527 405 527 c 0
 383 527 366 531 359 538 c 2
 355 542 l 1
 354 575 l 1
 354 609 l 1
 344 603 l 2
 327 593 314 590 289 591 c 0
 267 592 255 596 248 602 c 0
 245 606 244 606 244 609 c 0
 244 613 245 613 247 615 c 0
 249 617 271 630 296 645 c 0
 321 660 343 672 343 673 c 1
 344 673 323 685 297 700 c 0
 269 716 249 729 247 731 c 0
 242 736 244 743 254 748 c 0
 273 756 307 757 329 750 c 0
 331 749 338 747 343 743 c 0
 348 740 353 737 353 737 c 2
 354 737 354 752 354 770 c 2
 354 803 l 1
 357 806 l 2
 362 811 372 815 387 818 c 0
EndSplineSet
EndChar

StartChar: plus
Encoding: 43 43 10
Width: 1011
VWidth: 910
Flags: HW
LayerCount: 2
Fore
SplineSet
488 613 m 0
 513 617 543 612 553 602 c 2
 556 599 l 1
 556 462 l 1
 556 326 l 1
 737 326 l 2
 848 326 921 326 926 325 c 0
 941 323 953 318 958 313 c 0
 967 304 953 293 926 289 c 0
 921 288 848 289 737 289 c 2
 556 289 l 1
 556 152 l 1
 556 15 l 1
 553 13 l 2
 536 -4 473 -3 458 13 c 2
 455 16 l 1
 455 153 l 1
 455 289 l 1
 274 289 l 2
 163 289 91 288 86 289 c 0
 59 293 45 304 54 313 c 0
 59 318 71 323 86 325 c 0
 91 326 163 326 274 326 c 2
 455 326 l 1
 455 461 l 1
 455 598 l 1
 458 602 l 2
 463 607 473 610 488 613 c 0
EndSplineSet
EndChar

StartChar: comma
Encoding: 44 44 11
Width: 303
VWidth: 910
Flags: HW
LayerCount: 2
Fore
SplineSet
134 36 m 0
 159 40 189 35 199 25 c 2
 202 22 l 1
 202 5 l 2
 199 -56 184 -116 158 -171 c 0
 154 -179 150 -187 149 -189 c 0
 142 -196 124 -202 101 -202 c 0
 88 -202 76 -201 67 -198 c 0
 61 -196 59 -194 55 -190 c 0
 50 -185 49 -184 57 -167 c 0
 84 -111 98 -57 101 5 c 2
 101 21 l 1
 104 25 l 2
 109 30 119 33 134 36 c 0
EndSplineSet
EndChar

StartChar: hyphen
Encoding: 45 45 12
Width: 1011
VWidth: 910
Flags: HW
LayerCount: 2
Fore
SplineSet
85 325 m 0
 93 326 918 326 926 325 c 0
 953 321 967 310 958 301 c 0
 953 296 941 291 926 289 c 0
 917 288 95 288 86 289 c 0
 65 292 51 300 51 308 c 0
 51 315 66 322 85 325 c 0
EndSplineSet
EndChar

StartChar: period
Encoding: 46 46 13
Width: 303
VWidth: 910
Flags: HW
LayerCount: 2
Fore
SplineSet
130 43 m 0
 164 48 200 41 209 28 c 0
 213 23 213 21 209 16 c 0
 197 1 146 -6 113 5 c 0
 99 10 91 17 91 23 c 0
 91 26 95 31 100 34 c 0
 105 38 119 42 130 43 c 0
EndSplineSet
EndChar

StartChar: slash
Encoding: 47 47 14
Width: 708
VWidth: 910
Flags: HW
LayerCount: 2
Fore
SplineSet
589 818 m 0
 603 820 621 820 635 816 c 0
 648 813 657 806 657 801 c 0
 657 799 596 704 404 407 c 0
 266 192 150 15 149 13 c 0
 133 -3 71 -4 54 13 c 0
 52 15 51 16 51 18 c 0
 51 20 112 115 304 412 c 0
 442 627 558 804 559 806 c 0
 564 811 574 815 589 818 c 0
EndSplineSet
EndChar

StartChar: zero
Encoding: 48 48 15
Width: 910
VWidth: 910
Flags: HW
LayerCount: 2
Fore
SplineSet
423 824 m 0
 439 825 472 825 480 823 c 0
 488 820 495 819 499 816 c 0
 503 813 506 808 506 806 c 0
 506 803 503 799 499 796 c 0
 491 791 477 788 453 787 c 0
 443 786 432 787 428 786 c 0
 369 778 313 746 277 700 c 0
 223 632 197 537 197 410 c 0
 197 283 223 187 277 119 c 0
 324 60 402 26 474 33 c 0
 536 39 596 71 634 119 c 0
 688 186 714 282 714 408 c 0
 714 504 694 576 652 628 c 0
 617 673 561 699 505 699 c 0
 490 699 474 702 465 707 c 0
 460 709 455 714 455 718 c 0
 455 721 460 726 465 729 c 0
 477 734 494 737 519 736 c 0
 620 732 701 699 749 639 c 0
 764 621 778 595 788 571 c 0
 809 518 819 450 814 368 c 0
 809 267 787 191 745 129 c 0
 716 85 676 52 627 29 c 0
 524 -17 385 -17 282 30 c 0
 250 45 223 63 199 87 c 0
 185 101 176 114 165 129 c 0
 126 188 104 256 97 352 c 0
 95 372 95 447 97 467 c 0
 104 563 126 631 165 690 c 0
 203 747 259 787 333 808 c 0
 359 815 392 821 423 824 c 0
EndSplineSet
EndChar

StartChar: one
Encoding: 49 49 16
Width: 631
VWidth: 910
Flags: HW
LayerCount: 2
Fore
SplineSet
462 818 m 0
 487 822 518 816 528 806 c 2
 531 804 l 1
 531 420 l 1
 531 35 l 1
 535 34 l 2
 541 32 551 28 553 25 c 0
 555 23 555 21 555 19 c 0
 555 11 542 4 521 1 c 0
 517 0 499 0 480 0 c 0
 438 0 428 1 414 7 c 0
 398 15 402 29 425 34 c 2
 430 35 l 1
 430 368 l 1
 430 701 l 1
 421 694 l 2
 416 689 348 624 269 548 c 0
 112 399 123 409 108 405 c 0
 98 402 76 401 65 403 c 0
 45 406 31 414 31 421 c 0
 31 424 33 425 42 435 c 0
 48 440 139 528 244 627 c 0
 381 757 436 810 440 811 c 0
 445 815 452 816 462 818 c 0
EndSplineSet
EndChar

StartChar: two
Encoding: 50 50 17
Width: 910
VWidth: 910
Flags: HW
LayerCount: 2
Fore
SplineSet
392 824 m 0
 414 825 502 824 518 823 c 0
 604 817 664 800 715 769 c 0
 742 753 763 733 779 708 c 0
 809 662 817 606 802 547 c 0
 797 531 793 519 786 504 c 0
 760 452 714 411 639 369 c 0
 609 353 569 334 493 301 c 0
 463 288 430 274 419 269 c 0
 312 220 255 175 226 117 c 0
 214 94 207 69 204 44 c 2
 204 37 l 1
 490 37 l 2
 762 36 777 36 783 35 c 0
 797 31 803 28 807 23 c 0
 810 19 810 19 807 15 c 0
 803 10 796 6 782 2 c 0
 775 1 759 1 455 1 c 2
 136 1 l 1
 127 3 l 2
 117 5 108 9 104 13 c 2
 102 16 l 1
 102 30 l 2
 104 64 111 92 125 121 c 0
 153 178 205 224 295 270 c 0
 324 285 345 295 411 323 c 0
 494 358 527 374 559 391 c 0
 654 445 700 505 707 587 c 0
 708 592 708 602 708 607 c 0
 708 663 681 716 637 745 c 0
 602 769 562 781 506 786 c 0
 489 788 408 788 385 786 c 0
 331 782 290 773 258 758 c 0
 224 742 206 719 203 692 c 0
 203 685 203 684 198 680 c 0
 191 673 175 669 153 669 c 0
 130 669 114 673 106 681 c 2
 102 684 l 1
 102 693 l 2
 105 732 139 765 197 789 c 0
 249 809 310 820 392 824 c 0
EndSplineSet
EndChar

StartChar: three
Encoding: 51 51 18
Width: 910
VWidth: 910
Flags: HW
LayerCount: 2
Fore
SplineSet
359 826 m 0
 381 827 421 827 447 826 c 0
 460 825 481 825 495 824 c 0
 581 821 647 806 701 779 c 0
 724 767 741 756 756 741 c 0
 833 668 833 548 756 475 c 0
 729 449 687 427 639 413 c 2
 628 410 l 1
 634 409 l 2
 662 402 699 385 724 370 c 0
 773 339 803 295 813 240 c 0
 815 227 815 196 813 184 c 0
 806 142 787 107 757 79 c 0
 742 64 725 52 701 40 c 0
 647 13 581 -2 495 -5 c 0
 481 -6 460 -5 447 -6 c 0
 364 -10 285 -3 204 13 c 0
 153 23 129 32 114 47 c 0
 107 54 103 61 102 69 c 0
 102 74 102 75 105 78 c 0
 108 82 116 86 126 88 c 0
 132 90 136 90 153 90 c 0
 174 90 182 89 193 84 c 0
 200 80 202 77 203 71 c 0
 205 57 214 53 255 45 c 0
 307 35 367 29 414 30 c 0
 473 32 497 33 512 35 c 0
 566 40 609 52 644 76 c 0
 692 108 719 169 713 228 c 0
 709 263 696 295 673 321 c 0
 649 347 610 369 566 380 c 0
 538 386 513 390 467 391 c 0
 434 392 427 394 416 399 c 0
 397 408 404 421 430 426 c 0
 436 428 443 428 467 429 c 0
 513 430 538 434 566 440 c 0
 610 451 649 473 673 499 c 0
 728 562 728 654 673 717 c 0
 649 743 610 765 566 776 c 0
 531 784 513 786 414 789 c 0
 367 790 307 785 255 775 c 0
 214 767 205 762 203 748 c 0
 202 742 200 739 193 735 c 0
 182 730 174 729 153 729 c 0
 136 729 132 729 126 731 c 0
 116 733 108 737 105 741 c 0
 102 744 102 745 102 750 c 0
 103 758 107 765 114 773 c 0
 129 788 153 796 204 806 c 0
 255 816 306 823 359 826 c 0
EndSplineSet
EndChar

StartChar: four
Encoding: 52 52 19
Width: 834
VWidth: 910
Flags: HW
LayerCount: 2
Fore
SplineSet
293 818 m 0
 307 820 328 819 340 815 c 0
 352 812 359 806 359 801 c 0
 359 798 340 767 276 662 c 0
 230 587 191 525 191 524 c 0
 190 522 195 522 304 522 c 2
 418 522 l 1
 418 561 l 1
 418 599 l 1
 421 602 l 2
 438 618 499 618 516 602 c 2
 519 599 l 1
 519 561 l 1
 519 522 l 1
 631 522 l 2
 697 522 745 523 749 522 c 0
 776 518 790 507 781 498 c 0
 776 493 764 488 749 486 c 0
 745 485 697 485 631 485 c 2
 519 485 l 1
 519 250 l 1
 519 15 l 1
 516 13 l 2
 499 -4 436 -3 421 13 c 2
 418 16 l 1
 418 251 l 1
 418 485 l 1
 268 485 l 2
 178 485 116 485 111 486 c 0
 90 489 76 496 76 503 c 0
 76 505 99 544 168 655 c 0
 218 738 260 806 261 807 c 0
 266 812 278 816 293 818 c 0
EndSplineSet
EndChar

StartChar: five
Encoding: 53 53 20
Width: 910
VWidth: 910
Flags: HW
LayerCount: 2
Fore
SplineSet
135 818 m 0
 140 819 208 819 459 819 c 0
 761 818 777 818 783 817 c 0
 797 813 803 810 807 805 c 0
 810 801 810 800 807 796 c 0
 803 791 797 788 783 784 c 0
 777 783 762 783 490 782 c 2
 203 782 l 1
 203 688 l 2
 203 636 203 594 204 594 c 2
 204 594 211 596 217 597 c 0
 233 602 261 607 281 610 c 0
 329 617 390 621 457 620 c 0
 496 619 514 618 542 613 c 0
 700 590 791 506 811 363 c 0
 820 297 813 229 791 175 c 0
 753 78 669 19 542 1 c 0
 514 -4 496 -4 457 -5 c 0
 345 -6 261 3 192 24 c 0
 134 41 105 65 102 97 c 0
 102 102 102 103 105 106 c 0
 110 113 123 117 141 119 c 0
 166 122 192 116 200 107 c 0
 202 104 203 103 203 98 c 0
 206 74 223 61 269 49 c 0
 294 42 321 37 352 35 c 0
 387 31 456 31 482 33 c 0
 541 38 589 55 629 89 c 0
 684 136 714 214 714 308 c 0
 714 401 684 478 629 525 c 0
 589 559 541 577 482 582 c 0
 456 584 387 583 352 579 c 0
 321 577 294 572 269 565 c 0
 223 553 206 540 203 516 c 0
 203 511 202 510 200 507 c 0
 185 490 120 491 105 507 c 2
 102 511 l 1
 102 657 l 1
 102 803 l 1
 105 806 l 2
 110 811 120 815 135 818 c 0
EndSplineSet
EndChar

StartChar: six
Encoding: 54 54 21
Width: 910
VWidth: 910
Flags: HW
LayerCount: 2
Fore
SplineSet
383 824 m 0
 390 825 480 824 496 823 c 0
 571 818 625 809 674 794 c 0
 727 777 756 753 762 726 c 0
 766 712 764 708 754 703 c 0
 743 698 734 696 714 696 c 0
 693 696 684 698 673 703 c 0
 666 707 663 710 663 717 c 0
 662 724 658 734 653 740 c 0
 637 761 578 779 507 784 c 0
 468 788 404 789 392 786 c 0
 373 782 348 770 330 755 c 0
 288 722 261 677 236 609 c 0
 231 597 222 565 222 564 c 2
 231 570 l 2
 277 596 335 612 408 618 c 0
 425 620 485 620 503 618 c 0
 546 614 582 608 616 597 c 0
 702 570 761 517 791 440 c 0
 823 362 823 253 791 175 c 0
 761 98 702 44 616 17 c 0
 582 6 546 0 503 -4 c 0
 485 -6 425 -6 408 -4 c 0
 316 3 249 27 197 68 c 0
 137 116 102 187 96 280 c 0
 95 298 95 364 97 396 c 0
 103 509 122 593 157 667 c 0
 186 726 227 770 278 796 c 0
 310 812 340 820 383 824 c 0
482 582 m 0
 447 585 409 581 380 574 c 0
 303 555 247 507 219 434 c 0
 189 358 189 256 219 180 c 0
 229 155 243 131 259 112 c 0
 304 59 372 32 455 32 c 0
 570 32 654 84 691 180 c 0
 721 256 721 358 691 434 c 0
 681 459 667 483 651 503 c 0
 611 549 553 577 482 582 c 0
EndSplineSet
EndChar

StartChar: seven
Encoding: 55 55 22
Width: 809
VWidth: 910
Flags: HW
LayerCount: 2
Fore
SplineSet
85 818 m 0
 93 819 716 819 724 818 c 0
 744 815 758 808 758 801 c 0
 758 798 334 17 330 13 c 0
 325 8 316 4 301 1 c 0
 269 -4 233 5 233 18 c 0
 233 21 293 131 440 401 c 2
 646 782 l 1
 365 782 l 2
 107 783 82 783 77 784 c 0
 59 789 51 794 51 801 c 0
 51 808 66 815 85 818 c 0
EndSplineSet
EndChar

StartChar: eight
Encoding: 56 56 23
Width: 910
VWidth: 910
Flags: HW
LayerCount: 2
Fore
SplineSet
416 824 m 0
 430 825 507 824 523 823 c 0
 603 816 664 799 712 771 c 0
 772 736 807 677 804 612 c 0
 802 577 791 544 769 515 c 0
 761 504 744 487 732 479 c 0
 707 460 675 445 639 434 c 2
 626 430 l 1
 641 426 l 2
 687 411 728 389 755 364 c 0
 771 348 783 331 794 309 c 0
 835 227 813 125 743 69 c 0
 708 41 656 19 600 7 c 0
 554 -2 518 -5 455 -5 c 0
 392 -5 356 -2 310 7 c 0
 254 19 202 41 167 69 c 0
 97 125 76 227 117 309 c 0
 128 331 140 348 156 364 c 0
 183 389 223 411 269 426 c 2
 284 430 l 1
 271 434 l 2
 223 449 184 469 157 496 c 0
 145 509 138 518 130 532 c 0
 89 601 102 688 161 744 c 0
 198 779 258 805 331 816 c 0
 355 821 375 822 416 824 c 0
492 786 m 0
 463 788 418 788 393 785 c 0
 347 780 307 766 277 746 c 0
 196 692 184 578 252 509 c 0
 280 481 326 460 379 453 c 0
 402 449 416 450 455 450 c 0
 514 450 547 453 582 465 c 0
 636 482 671 512 690 556 c 0
 714 611 704 673 665 719 c 0
 639 750 592 774 538 782 c 0
 523 785 511 785 492 786 c 0
511 410 m 0
 495 411 436 412 417 411 c 0
 361 407 318 396 282 374 c 0
 251 356 230 334 215 302 c 0
 190 251 190 192 215 141 c 0
 226 119 240 101 257 86 c 0
 286 62 325 45 371 38 c 0
 397 33 413 33 455 33 c 0
 497 33 513 33 540 38 c 0
 586 45 625 62 654 86 c 0
 696 121 718 182 713 239 c 0
 710 262 704 282 695 302 c 0
 676 340 648 367 606 386 c 0
 578 398 549 405 511 410 c 0
EndSplineSet
EndChar

StartChar: nine
Encoding: 57 57 24
Width: 910
VWidth: 910
Flags: HW
LayerCount: 2
Fore
SplineSet
425 824 m 0
 433 825 493 824 505 823 c 0
 594 815 663 792 714 751 c 0
 774 703 808 632 814 539 c 0
 815 521 815 455 813 424 c 0
 807 310 788 226 753 153 c 0
 748 144 742 131 738 125 c 0
 698 59 639 15 566 0 c 0
 541 -5 535 -6 483 -5 c 0
 436 -5 415 -5 380 -1 c 0
 292 6 214 27 177 53 c 0
 158 67 147 86 147 103 c 0
 147 109 150 113 157 117 c 0
 168 122 177 123 198 123 c 0
 218 123 227 122 238 117 c 0
 245 113 248 109 248 102 c 0
 249 95 253 85 258 79 c 0
 274 58 332 40 403 35 c 0
 442 31 506 31 518 34 c 0
 537 38 562 50 581 65 c 0
 622 98 649 142 674 211 c 0
 679 222 688 254 688 255 c 2
 679 249 l 2
 633 223 575 207 503 201 c 0
 485 199 425 199 408 201 c 0
 364 205 328 211 295 222 c 0
 209 249 149 303 119 380 c 0
 94 441 89 521 104 594 c 0
 126 698 190 768 295 802 c 0
 329 813 368 820 408 823 c 0
 415 824 423 824 425 824 c 0
482 786 m 0
 447 789 409 786 380 779 c 0
 303 760 247 712 219 639 c 0
 189 563 189 461 219 385 c 0
 229 360 243 336 259 317 c 0
 304 264 372 237 455 237 c 0
 570 237 654 289 691 385 c 0
 721 461 721 563 691 639 c 0
 681 664 667 688 651 708 c 0
 611 754 553 781 482 786 c 0
EndSplineSet
EndChar

StartChar: colon
Encoding: 58 58 25
Width: 303
VWidth: 910
Flags: HW
LayerCount: 2
Fore
SplineSet
130 613 m 0
 164 618 200 611 209 598 c 0
 213 593 213 591 209 586 c 0
 197 571 146 564 113 575 c 0
 99 580 91 587 91 593 c 0
 91 596 95 600 100 603 c 0
 105 607 119 612 130 613 c 0
130 43 m 0
 164 48 200 41 209 28 c 0
 213 23 213 21 209 16 c 0
 197 1 146 -6 113 5 c 0
 99 10 91 17 91 23 c 0
 91 26 95 31 100 34 c 0
 105 38 119 42 130 43 c 0
EndSplineSet
EndChar

StartChar: semicolon
Encoding: 59 59 26
Width: 303
VWidth: 910
Flags: HW
LayerCount: 2
Fore
SplineSet
130 616 m 0
 164 621 200 615 209 602 c 0
 213 597 213 595 209 590 c 0
 197 575 146 568 113 579 c 0
 99 584 91 590 91 596 c 0
 91 599 95 604 100 607 c 0
 105 611 119 615 130 616 c 0
134 36 m 0
 159 40 189 35 199 25 c 2
 202 22 l 1
 202 5 l 2
 199 -56 184 -116 158 -171 c 0
 154 -179 150 -187 149 -189 c 0
 142 -196 124 -202 101 -202 c 0
 88 -202 76 -201 67 -198 c 0
 61 -196 59 -194 55 -190 c 0
 50 -185 49 -184 57 -167 c 0
 84 -111 98 -57 101 5 c 2
 101 21 l 1
 104 25 l 2
 109 30 119 33 134 36 c 0
EndSplineSet
EndChar

StartChar: less
Encoding: 60 60 27
Width: 1011
VWidth: 910
Flags: HW
LayerCount: 2
Fore
SplineSet
892 613 m 0
 923 618 960 609 960 596 c 0
 960 591 955 587 950 584 c 0
 947 583 213 320 179 309 c 2
 174 308 l 1
 559 170 l 2
 771 94 946 32 949 30 c 0
 960 25 963 18 958 13 c 0
 946 1 908 -3 882 4 c 0
 875 5 66 293 61 296 c 0
 56 299 51 303 51 307 c 0
 51 312 56 316 61 319 c 0
 66 321 874 609 880 611 c 0
 882 612 887 612 892 613 c 0
EndSplineSet
EndChar

StartChar: equal
Encoding: 61 61 28
Width: 1011
VWidth: 910
Flags: HW
LayerCount: 2
Fore
SplineSet
85 428 m 0
 93 429 918 429 926 428 c 0
 953 424 967 413 958 404 c 0
 953 399 941 394 926 392 c 0
 917 391 95 391 86 392 c 0
 65 395 51 403 51 411 c 0
 51 418 66 425 85 428 c 0
85 223 m 0
 93 224 918 224 926 223 c 0
 953 219 967 208 958 199 c 0
 953 194 941 190 926 188 c 0
 917 187 95 187 86 188 c 0
 65 191 51 198 51 206 c 0
 51 213 66 220 85 223 c 0
EndSplineSet
EndChar

StartChar: greater
Encoding: 62 62 29
Width: 1011
VWidth: 910
Flags: HW
LayerCount: 2
Fore
SplineSet
85 613 m 0
 99 615 117 615 130 611 c 0
 136 610 945 322 950 319 c 0
 955 316 960 312 960 307 c 0
 960 303 955 299 950 296 c 0
 945 293 136 5 130 4 c 0
 103 -3 66 1 54 13 c 0
 49 18 51 25 62 30 c 0
 65 32 240 94 452 170 c 2
 837 308 l 1
 832 309 l 2
 798 320 64 583 61 584 c 0
 56 587 51 591 51 596 c 0
 51 603 66 610 85 613 c 0
EndSplineSet
EndChar

StartChar: question
Encoding: 63 63 30
Width: 809
VWidth: 910
Flags: HW
LayerCount: 2
Fore
SplineSet
360 824 m 0
 368 824 386 825 401 825 c 0
 522 825 611 801 675 755 c 0
 720 721 748 672 756 612 c 0
 758 601 758 564 756 553 c 0
 748 492 720 445 674 410 c 0
 618 367 546 343 466 338 c 1
 455 338 l 1
 455 220 l 1
 455 104 l 1
 452 101 l 2
 449 97 441 93 431 91 c 0
 425 89 421 89 405 89 c 0
 388 89 384 89 378 91 c 0
 368 93 360 97 357 101 c 2
 354 104 l 1
 354 233 l 1
 354 361 l 1
 357 365 l 2
 362 370 375 375 390 377 c 0
 400 378 409 378 424 376 c 0
 462 372 500 380 542 400 c 0
 593 425 623 456 641 502 c 0
 653 529 656 552 656 583 c 0
 656 614 653 636 641 664 c 0
 631 689 613 715 594 731 c 0
 563 757 521 776 473 783 c 0
 451 787 439 786 405 786 c 0
 370 786 358 787 336 783 c 0
 288 776 246 757 215 731 c 0
 196 715 178 689 168 664 c 0
 158 639 154 618 152 592 c 2
 152 580 l 1
 148 575 l 2
 140 568 123 564 102 564 c 0
 79 564 63 568 55 576 c 2
 51 580 l 1
 51 593 l 1
 55 660 84 717 134 755 c 0
 189 795 263 819 360 824 c 0
389 36 m 0
 398 37 422 37 431 35 c 0
 464 28 464 10 431 3 c 0
 418 0 392 0 379 3 c 0
 364 7 354 12 354 18 c 0
 354 26 367 33 389 36 c 0
EndSplineSet
EndChar

StartChar: at
Encoding: 64 64 31
Width: 1213
VWidth: 910
Flags: HW
LayerCount: 2
Fore
SplineSet
566 789 m 0
 583 790 659 789 677 788 c 0
 813 778 913 745 989 684 c 0
 1011 667 1036 641 1052 617 c 0
 1094 556 1118 477 1118 393 c 0
 1118 284 1063 215 964 200 c 0
 946 197 912 197 895 199 c 0
 868 203 843 212 827 222 c 0
 824 224 823 226 822 226 c 2
 822 226 820 222 818 217 c 0
 811 199 801 182 786 167 c 0
 773 155 760 147 745 140 c 0
 728 131 718 128 700 123 c 0
 655 112 603 110 561 117 c 0
 515 124 477 143 448 172 c 0
 434 187 424 202 413 225 c 0
 402 246 396 266 391 293 c 0
 385 325 383 346 383 392 c 0
 383 446 386 475 395 512 c 0
 401 536 412 562 424 582 c 0
 453 629 499 658 561 668 c 0
 610 677 677 671 723 654 c 0
 736 649 757 639 767 632 c 0
 779 624 797 606 804 595 c 0
 819 572 827 547 830 517 c 0
 831 512 831 469 831 406 c 2
 831 305 l 1
 840 305 l 2
 863 305 882 299 889 292 c 0
 891 289 892 287 892 281 c 0
 893 273 895 264 900 257 c 0
 904 251 913 242 920 238 c 2
 928 235 l 1
 932 237 l 2
 935 237 940 239 945 242 c 0
 982 261 1008 304 1015 360 c 0
 1019 390 1016 439 1009 477 c 0
 993 557 954 623 898 668 c 0
 825 725 733 753 607 753 c 0
 522 753 454 741 397 716 c 0
 374 706 361 699 340 685 c 0
 282 647 241 593 217 522 c 0
 193 452 190 366 208 291 c 0
 214 266 226 238 237 215 c 0
 259 170 288 136 329 106 c 0
 408 47 502 20 588 30 c 0
 617 35 645 29 654 19 c 0
 658 14 658 11 654 7 c 0
 647 0 637 -2 614 -5 c 0
 522 -15 431 -4 348 29 c 0
 331 35 296 52 280 62 c 0
 246 82 221 101 197 125 c 0
 161 162 135 205 117 258 c 0
 104 298 98 335 96 381 c 0
 94 470 116 553 161 617 c 0
 197 669 253 712 319 740 c 0
 387 769 466 784 566 789 c 0
641 640 m 0
 626 643 601 644 591 641 c 0
 559 634 529 612 509 583 c 0
 486 550 472 509 467 458 c 0
 462 425 462 370 465 337 c 0
 471 272 490 223 519 188 c 0
 538 166 566 148 593 143 c 0
 603 141 626 142 641 145 c 0
 703 156 742 200 749 267 c 0
 750 279 750 506 749 518 c 0
 742 585 703 629 641 640 c 0
EndSplineSet
EndChar

StartChar: A
Encoding: 65 65 32
Width: 961
VWidth: 910
Flags: HW
LayerCount: 2
Fore
SplineSet
430 818 m 0
 433 818 457 819 484 819 c 0
 531 818 535 818 542 816 c 0
 551 814 559 810 563 807 c 0
 566 804 885 22 885 18 c 0
 885 5 848 -4 816 1 c 0
 801 4 792 8 787 13 c 0
 785 15 767 61 722 168 c 2
 660 322 l 1
 481 322 l 1
 301 322 l 1
 239 168 l 2
 194 61 176 15 174 13 c 0
 169 8 160 4 145 1 c 0
 113 -4 76 5 76 18 c 0
 76 22 395 804 398 807 c 0
 403 812 415 816 430 818 c 0
563 561 m 2
 518 671 481 761 481 761 c 1
 481 761 444 671 399 561 c 2
 317 360 l 1
 399 360 l 1
 563 360 l 1
 644 360 l 1
 563 561 l 2
EndSplineSet
EndChar

StartChar: B
Encoding: 66 66 33
Width: 910
VWidth: 910
Flags: HW
LayerCount: 2
Fore
SplineSet
110 818 m 0
 124 820 232 819 287 816 c 0
 398 811 490 799 572 779 c 0
 655 758 713 734 752 706 c 0
 765 696 782 679 789 668 c 0
 799 653 806 636 808 619 c 0
 810 609 809 590 806 579 c 0
 796 529 756 485 695 455 c 0
 661 439 620 424 576 414 c 0
 567 412 559 411 559 411 c 2
 559 410 561 410 563 410 c 0
 581 407 626 394 650 386 c 0
 702 367 737 347 765 320 c 0
 797 290 813 256 815 220 c 0
 816 185 804 155 776 128 c 0
 743 97 691 73 614 51 c 0
 494 16 352 0 155 0 c 0
 110 0 100 1 86 7 c 0
 70 15 74 29 97 34 c 2
 102 35 l 1
 102 215 l 1
 102 394 l 1
 97 395 l 2
 94 396 90 398 86 399 c 0
 70 407 74 420 97 425 c 2
 102 426 l 1
 102 605 l 1
 102 785 l 1
 97 786 l 2
 90 788 81 792 79 795 c 0
 75 799 75 802 79 806 c 0
 83 811 96 816 110 818 c 0
256 780 m 0
 242 781 225 781 217 781 c 2
 203 781 l 1
 203 604 l 1
 203 429 l 1
 294 429 l 2
 344 430 393 430 402 431 c 0
 483 436 537 446 592 467 c 0
 658 493 699 537 706 588 c 0
 717 658 665 706 544 740 c 0
 460 764 376 775 256 780 c 0
378 390 m 0
 363 391 318 391 277 391 c 2
 203 391 l 1
 203 215 l 1
 203 38 l 1
 232 38 l 1
 372 42 482 56 573 86 c 0
 654 111 695 143 709 187 c 0
 714 202 715 221 711 237 c 0
 702 284 663 324 606 349 c 0
 544 375 477 386 378 390 c 0
EndSplineSet
EndChar

StartChar: C
Encoding: 67 67 34
Width: 910
VWidth: 910
Flags: HW
LayerCount: 2
Fore
SplineSet
423 824 m 0
 437 825 523 824 544 823 c 0
 621 818 676 809 729 791 c 0
 798 768 836 734 839 693 c 2
 839 684 l 1
 836 681 l 2
 828 673 811 669 789 669 c 0
 766 669 750 673 742 680 c 0
 738 684 738 684 738 689 c 0
 738 695 736 706 733 712 c 0
 727 726 717 735 702 745 c 0
 672 765 617 779 555 784 c 0
 520 788 455 788 436 786 c 0
 374 780 315 748 277 700 c 0
 223 632 197 537 197 410 c 0
 197 283 223 187 277 119 c 0
 315 71 374 39 436 33 c 0
 455 31 520 31 555 35 c 0
 617 40 672 55 702 75 c 0
 717 85 727 93 733 107 c 0
 736 113 738 124 738 130 c 0
 738 135 738 135 742 139 c 0
 750 146 766 150 789 150 c 0
 811 150 828 146 836 138 c 2
 839 135 l 1
 839 127 l 2
 837 101 821 76 792 57 c 0
 774 45 754 36 729 28 c 0
 676 10 620 1 544 -4 c 0
 518 -6 445 -6 427 -5 c 0
 353 0 291 19 241 53 c 0
 211 73 185 99 165 129 c 0
 126 188 104 256 97 352 c 0
 95 372 95 447 97 467 c 0
 105 573 131 649 179 710 c 0
 189 723 211 744 223 754 c 0
 277 795 341 818 423 824 c 0
EndSplineSet
EndChar

StartChar: D
Encoding: 68 68 35
Width: 884
VWidth: 910
Flags: HW
LayerCount: 2
Fore
SplineSet
110 818 m 0
 125 820 196 820 244 816 c 0
 418 806 553 767 654 700 c 0
 742 641 798 552 812 449 c 0
 814 431 814 388 812 371 c 0
 802 294 770 226 715 169 c 0
 683 136 645 111 595 86 c 0
 501 39 387 12 244 4 c 0
 195 0 126 -1 111 1 c 0
 85 5 70 15 79 25 c 0
 81 28 90 32 97 34 c 2
 102 35 l 1
 102 410 l 1
 102 785 l 1
 97 786 l 2
 90 788 81 792 79 795 c 0
 75 799 75 802 79 806 c 0
 83 811 96 816 110 818 c 0
248 777 m 0
 239 778 225 779 218 780 c 2
 203 780 l 1
 203 410 l 1
 203 39 l 1
 218 39 l 1
 315 44 408 62 479 91 c 0
 516 107 556 129 581 147 c 0
 654 203 699 282 711 373 c 0
 713 390 713 429 711 447 c 0
 702 515 675 574 629 626 c 0
 598 661 561 689 509 714 c 0
 436 749 354 769 248 777 c 0
EndSplineSet
EndChar

StartChar: E
Encoding: 69 69 36
Width: 884
VWidth: 910
Flags: HW
LayerCount: 2
Fore
SplineSet
110 818 m 0
 118 819 766 819 774 818 c 0
 800 814 815 805 806 795 c 0
 802 790 789 785 774 783 c 0
 769 782 660 782 485 782 c 2
 203 782 l 1
 203 605 l 1
 203 429 l 1
 460 429 l 2
 680 429 718 429 725 428 c 0
 768 421 768 399 725 392 c 0
 718 391 680 391 460 391 c 2
 203 391 l 1
 203 215 l 1
 203 37 l 1
 485 37 l 2
 660 37 769 37 774 36 c 0
 800 32 815 23 806 13 c 0
 802 8 789 3 774 1 c 0
 765 0 120 0 111 1 c 0
 85 5 70 15 79 25 c 0
 81 28 90 32 97 34 c 2
 102 35 l 1
 102 215 l 1
 102 394 l 1
 97 395 l 2
 94 396 90 398 86 399 c 0
 70 407 74 420 97 425 c 2
 102 426 l 1
 102 605 l 1
 102 785 l 1
 97 786 l 2
 90 788 81 792 79 795 c 0
 75 799 75 802 79 806 c 0
 83 811 96 816 110 818 c 0
EndSplineSet
EndChar

StartChar: F
Encoding: 70 70 37
Width: 884
VWidth: 910
Flags: HW
LayerCount: 2
Fore
SplineSet
110 818 m 0
 118 819 766 819 774 818 c 0
 800 814 815 805 806 795 c 0
 802 790 789 785 774 783 c 0
 769 782 660 782 485 782 c 2
 203 782 l 1
 203 605 l 1
 203 429 l 1
 460 429 l 2
 680 429 718 429 725 428 c 0
 768 421 768 399 725 392 c 0
 718 391 680 391 460 391 c 2
 203 391 l 1
 203 204 l 1
 203 15 l 1
 200 13 l 2
 183 -4 120 -3 105 13 c 2
 102 16 l 1
 102 205 l 1
 102 394 l 1
 97 395 l 2
 94 396 90 398 86 399 c 0
 70 407 74 420 97 425 c 2
 102 426 l 1
 102 605 l 1
 102 785 l 1
 97 786 l 2
 90 788 81 792 79 795 c 0
 75 799 75 802 79 806 c 0
 83 811 96 816 110 818 c 0
EndSplineSet
EndChar

StartChar: G
Encoding: 71 71 38
Width: 910
VWidth: 910
Flags: HW
LayerCount: 2
Fore
SplineSet
423 824 m 0
 437 825 523 824 544 823 c 0
 621 818 676 809 729 791 c 0
 798 768 836 734 839 693 c 2
 839 684 l 1
 836 681 l 2
 828 673 811 669 789 669 c 0
 766 669 750 673 742 680 c 0
 738 684 738 684 738 689 c 0
 738 695 736 706 733 712 c 0
 727 726 717 735 702 745 c 0
 672 765 617 779 555 784 c 0
 520 788 455 788 436 786 c 0
 374 780 315 748 277 700 c 0
 223 632 197 537 197 410 c 0
 197 283 223 187 277 119 c 0
 315 71 374 39 436 33 c 0
 455 31 520 31 555 35 c 0
 617 40 672 55 702 75 c 0
 717 85 727 93 733 107 c 0
 738 119 738 112 738 259 c 2
 738 391 l 1
 617 391 l 2
 490 391 488 391 474 396 c 0
 463 399 455 405 455 410 c 0
 455 415 463 421 474 424 c 0
 488 429 488 429 647 429 c 0
 738 429 800 429 805 428 c 0
 820 426 830 421 836 416 c 2
 839 413 l 1
 839 266 l 1
 838 119 l 1
 836 112 l 2
 830 91 815 72 792 57 c 0
 774 45 754 36 729 28 c 0
 676 10 620 1 544 -4 c 0
 518 -6 445 -6 427 -5 c 0
 353 0 291 19 241 53 c 0
 211 73 185 99 165 129 c 0
 126 188 104 256 97 352 c 0
 95 372 95 447 97 467 c 0
 105 573 131 649 179 710 c 0
 189 723 211 744 223 754 c 0
 277 795 341 818 423 824 c 0
EndSplineSet
EndChar

StartChar: H
Encoding: 72 72 39
Width: 910
VWidth: 910
Flags: HW
LayerCount: 2
Fore
SplineSet
135 818 m 0
 160 822 190 816 200 806 c 2
 203 804 l 1
 203 625 l 1
 203 448 l 1
 456 448 l 1
 708 448 l 1
 708 625 l 1
 708 803 l 1
 711 806 l 2
 726 822 789 823 806 806 c 2
 809 804 l 1
 809 624 l 1
 809 445 l 1
 814 444 l 2
 816 443 820 442 824 441 c 0
 840 433 836 420 814 414 c 2
 809 413 l 1
 809 214 l 1
 809 15 l 1
 806 13 l 2
 789 -4 726 -3 711 13 c 2
 708 16 l 1
 708 214 l 1
 708 411 l 1
 456 411 l 1
 203 411 l 1
 203 213 l 1
 203 15 l 1
 200 13 l 2
 183 -4 120 -3 105 13 c 2
 102 16 l 1
 102 215 l 1
 102 413 l 1
 97 414 l 2
 94 415 90 417 86 418 c 0
 70 426 74 439 97 444 c 2
 102 445 l 1
 102 624 l 1
 102 803 l 1
 105 806 l 2
 110 811 120 815 135 818 c 0
EndSplineSet
EndChar

StartChar: I
Encoding: 73 73 40
Width: 556
VWidth: 910
Flags: HW
LayerCount: 2
Fore
SplineSet
235 818 m 0
 246 819 310 819 321 818 c 0
 336 815 346 811 351 806 c 0
 355 801 355 800 351 795 c 0
 347 791 342 789 334 786 c 2
 329 785 l 1
 329 410 l 1
 329 35 l 1
 334 34 l 2
 345 30 354 23 354 18 c 0
 354 13 346 8 335 5 c 0
 323 1 314 0 279 0 c 0
 243 0 233 1 221 5 c 0
 210 8 202 13 202 18 c 0
 202 23 211 30 222 34 c 2
 228 35 l 1
 228 410 l 1
 228 785 l 1
 222 786 l 2
 214 789 209 791 205 795 c 0
 201 800 201 801 205 806 c 0
 210 811 220 815 235 818 c 0
EndSplineSet
EndChar

StartChar: J
Encoding: 74 74 41
Width: 758
VWidth: 910
Flags: HW
LayerCount: 2
Fore
SplineSet
564 818 m 0
 572 819 639 819 647 818 c 0
 673 814 688 805 679 795 c 0
 677 792 668 788 662 786 c 2
 657 785 l 1
 657 568 l 2
 656 342 657 346 653 308 c 0
 645 229 624 165 589 113 c 0
 541 41 455 0 354 0 c 0
 253 0 167 41 119 113 c 0
 84 165 64 229 56 308 c 0
 53 333 52 350 51 380 c 2
 51 407 l 1
 55 411 l 2
 59 415 66 418 77 421 c 0
 88 423 115 423 126 421 c 0
 137 418 144 415 148 411 c 2
 152 407 l 1
 152 380 l 2
 154 327 159 284 167 246 c 0
 179 194 200 145 226 111 c 0
 253 76 294 48 334 39 c 0
 345 37 363 37 374 39 c 0
 409 46 446 69 471 97 c 0
 514 145 542 217 552 309 c 0
 556 347 555 344 556 569 c 2
 556 785 l 1
 552 786 l 2
 545 788 535 792 533 795 c 0
 529 799 529 802 533 806 c 0
 537 811 550 816 564 818 c 0
EndSplineSet
EndChar

StartChar: K
Encoding: 75 75 42
Width: 884
VWidth: 910
Flags: HW
LayerCount: 2
Fore
SplineSet
135 818 m 0
 160 822 190 816 200 806 c 2
 203 804 l 1
 203 643 l 1
 204 481 l 1
 457 644 l 2
 596 733 712 808 715 810 c 0
 734 821 775 822 798 812 c 0
 808 807 811 800 806 795 c 0
 805 793 718 736 613 669 c 0
 507 602 421 545 420 545 c 0
 419 544 461 487 613 283 c 0
 780 60 808 21 808 18 c 0
 808 5 772 -4 740 1 c 0
 724 4 714 8 709 15 c 0
 707 17 625 127 527 259 c 0
 429 390 348 498 348 498 c 2
 347 498 314 476 275 451 c 2
 203 406 l 1
 203 210 l 1
 203 15 l 1
 200 13 l 2
 183 -4 120 -3 105 13 c 2
 102 16 l 1
 102 410 l 1
 102 803 l 1
 105 806 l 2
 110 811 120 815 135 818 c 0
EndSplineSet
EndChar

StartChar: L
Encoding: 76 76 43
Width: 859
VWidth: 910
Flags: HW
LayerCount: 2
Fore
SplineSet
135 818 m 0
 160 822 190 816 200 806 c 2
 203 804 l 1
 203 421 l 1
 203 37 l 1
 485 37 l 2
 660 37 769 37 774 36 c 0
 789 34 801 30 806 25 c 0
 815 16 801 5 774 1 c 0
 765 0 120 0 111 1 c 0
 85 5 70 15 79 25 c 0
 81 28 90 32 97 34 c 2
 102 35 l 1
 102 419 l 1
 102 803 l 1
 105 806 l 2
 110 811 120 815 135 818 c 0
EndSplineSet
EndChar

StartChar: M
Encoding: 77 77 44
Width: 1314
VWidth: 910
Flags: HW
LayerCount: 2
Fore
SplineSet
135 818 m 0
 140 818 147 819 156 819 c 0
 175 818 187 815 196 810 c 0
 200 807 222 775 429 468 c 2
 658 127 l 1
 664 137 l 1
 761 283 1113 803 1115 806 c 0
 1131 822 1194 823 1211 806 c 2
 1213 804 l 1
 1213 410 l 1
 1213 15 l 1
 1211 13 l 2
 1194 -4 1131 -3 1116 13 c 2
 1113 15 l 1
 1112 331 l 1
 1112 647 l 1
 910 348 l 2
 799 183 706 47 705 45 c 0
 689 28 626 28 610 45 c 0
 609 47 516 183 405 348 c 2
 204 647 l 1
 203 331 l 1
 203 15 l 1
 200 13 l 2
 183 -4 120 -3 105 13 c 2
 102 16 l 1
 102 410 l 1
 102 803 l 1
 105 806 l 2
 110 811 120 815 135 818 c 0
EndSplineSet
EndChar

StartChar: N
Encoding: 78 78 45
Width: 910
VWidth: 910
Flags: HW
LayerCount: 2
Fore
SplineSet
135 818 m 0
 140 818 147 819 156 819 c 0
 174 818 187 815 196 810 c 0
 199 808 252 740 453 480 c 2
 708 152 l 1
 708 478 l 1
 709 804 l 1
 712 806 l 2
 727 822 789 823 806 806 c 2
 809 804 l 1
 809 410 l 1
 809 15 l 1
 806 13 l 2
 796 3 766 -3 741 1 c 0
 725 4 716 8 710 15 c 0
 707 18 592 165 455 343 c 2
 204 667 l 1
 203 341 l 1
 203 15 l 1
 200 13 l 2
 183 -4 120 -3 105 13 c 2
 102 16 l 1
 102 410 l 1
 102 803 l 1
 105 806 l 2
 110 811 120 815 135 818 c 0
EndSplineSet
EndChar

StartChar: O
Encoding: 79 79 46
Width: 1163
VWidth: 910
Flags: HW
LayerCount: 2
Fore
SplineSet
533 824 m 0
 541 824 562 825 578 825 c 0
 741 826 870 790 958 719 c 0
 1034 658 1077 571 1090 457 c 0
 1092 435 1092 384 1090 362 c 0
 1085 321 1078 284 1066 252 c 0
 1036 172 986 113 912 69 c 0
 829 20 718 -5 582 -5 c 0
 421 -5 293 30 206 100 c 0
 130 161 86 248 73 362 c 0
 71 384 71 435 73 457 c 0
 77 489 81 513 89 541 c 0
 113 624 160 690 228 736 c 0
 305 788 406 818 533 824 c 0
618 786 m 0
 540 790 462 782 406 762 c 0
 289 722 216 641 186 521 c 0
 168 451 168 369 186 299 c 0
 208 212 252 146 319 100 c 0
 387 54 473 32 582 32 c 0
 712 32 809 64 883 130 c 0
 914 158 943 201 961 246 c 0
 1001 346 1001 473 961 573 c 0
 930 650 878 707 802 744 c 0
 750 769 692 782 618 786 c 0
EndSplineSet
EndChar

StartChar: P
Encoding: 80 80 47
Width: 884
VWidth: 910
Flags: HW
LayerCount: 2
Fore
SplineSet
110 818 m 0
 117 819 232 818 265 817 c 0
 354 813 423 807 489 796 c 0
 589 780 679 753 731 723 c 0
 786 691 814 651 814 605 c 0
 814 559 786 520 731 488 c 0
 671 453 558 422 442 407 c 0
 376 399 284 392 224 392 c 0
 215 392 206 392 205 391 c 2
 203 391 l 1
 203 203 l 1
 203 15 l 1
 200 13 l 2
 183 -4 120 -3 105 13 c 2
 102 16 l 1
 102 205 l 1
 102 394 l 1
 97 395 l 2
 94 396 90 398 86 399 c 0
 70 407 74 420 97 425 c 2
 102 426 l 1
 102 605 l 1
 102 785 l 1
 97 786 l 2
 90 788 81 792 79 795 c 0
 71 805 84 814 110 818 c 0
257 780 m 0
 243 781 225 781 218 781 c 2
 203 781 l 1
 203 605 l 1
 203 430 l 1
 218 430 l 2
 244 430 299 432 335 435 c 0
 436 442 526 460 596 486 c 0
 661 510 696 539 708 578 c 0
 717 604 712 633 696 658 c 0
 673 693 627 718 544 741 c 0
 465 764 377 775 257 780 c 0
EndSplineSet
EndChar

StartChar: Q
Encoding: 81 81 48
Width: 1163
VWidth: 910
Flags: HW
LayerCount: 2
Fore
SplineSet
533 824 m 0
 541 824 562 825 578 825 c 0
 741 826 870 790 958 719 c 0
 1034 658 1077 571 1090 457 c 0
 1092 435 1092 384 1090 362 c 0
 1086 330 1082 306 1074 279 c 0
 1056 215 1024 161 978 118 c 2
 968 108 l 1
 1014 66 l 2
 1039 42 1060 23 1061 22 c 0
 1062 18 1063 17 1059 13 c 0
 1048 -1 996 -5 972 7 c 0
 967 9 960 15 937 37 c 0
 921 52 907 64 907 65 c 1
 906 65 898 61 888 56 c 0
 847 35 805 21 756 11 c 0
 650 -11 513 -11 407 11 c 0
 292 35 203 86 147 160 c 0
 106 215 82 281 73 362 c 0
 71 384 71 435 73 457 c 0
 77 489 81 513 89 541 c 0
 113 624 160 690 228 736 c 0
 305 788 406 818 533 824 c 0
618 786 m 0
 540 790 462 782 406 762 c 0
 289 722 216 641 186 521 c 0
 168 451 168 369 186 299 c 0
 208 212 252 146 319 100 c 0
 387 54 473 32 582 32 c 0
 648 32 709 41 757 57 c 0
 792 69 822 85 850 104 c 2
 857 109 l 1
 813 149 l 2
 782 177 768 191 767 193 c 0
 765 201 779 209 801 212 c 0
 821 215 849 211 860 205 c 0
 862 204 874 193 887 181 c 0
 907 164 910 160 912 161 c 0
 915 164 929 183 936 195 c 0
 999 298 1009 453 961 573 c 0
 930 650 878 707 802 744 c 0
 750 769 692 782 618 786 c 0
EndSplineSet
EndChar

StartChar: R
Encoding: 82 82 49
Width: 910
VWidth: 910
Flags: HW
LayerCount: 2
Fore
SplineSet
110 818 m 0
 117 819 237 818 271 817 c 0
 367 813 437 808 508 796 c 0
 601 781 685 756 739 730 c 0
 769 715 787 703 804 686 c 0
 821 669 831 654 836 633 c 0
 839 623 838 620 838 605 c 0
 838 590 839 588 836 578 c 0
 835 573 832 565 830 561 c 0
 819 536 796 512 765 494 c 0
 696 451 561 417 414 402 c 0
 403 401 394 400 393 400 c 2
 393 400 492 316 615 212 c 0
 737 108 838 24 838 23 c 0
 841 18 837 12 829 7 c 0
 808 -3 768 -3 748 8 c 0
 746 9 642 96 517 202 c 2
 289 394 l 1
 285 394 l 2
 282 393 265 393 248 393 c 0
 230 392 213 392 209 391 c 2
 203 391 l 1
 203 203 l 1
 203 15 l 1
 200 13 l 2
 183 -4 120 -3 105 13 c 2
 102 16 l 1
 102 205 l 1
 102 394 l 1
 97 395 l 2
 94 396 90 398 86 399 c 0
 70 407 74 420 97 425 c 2
 102 426 l 1
 102 605 l 1
 102 785 l 1
 97 786 l 2
 90 788 81 792 79 795 c 0
 71 805 84 814 110 818 c 0
288 779 m 0
 276 780 252 780 235 781 c 2
 203 781 l 1
 203 605 l 1
 203 430 l 1
 235 430 l 2
 359 433 459 443 545 465 c 0
 580 473 611 482 636 492 c 0
 650 497 674 511 684 517 c 0
 711 535 728 557 735 582 c 0
 737 589 737 591 737 605 c 0
 737 619 737 622 735 629 c 0
 726 662 704 685 661 706 c 0
 632 721 596 733 545 745 c 0
 472 763 392 774 288 779 c 0
EndSplineSet
EndChar

StartChar: S
Encoding: 83 83 50
Width: 910
VWidth: 910
Flags: HW
LayerCount: 2
Fore
SplineSet
407 824 m 0
 428 825 490 825 516 824 c 0
 599 820 662 809 715 789 c 0
 773 765 806 732 809 693 c 2
 809 684 l 1
 806 681 l 2
 798 673 781 669 759 669 c 0
 736 669 720 673 713 680 c 0
 708 684 708 685 708 692 c 0
 705 724 681 750 636 765 c 0
 609 775 579 781 544 784 c 0
 505 788 431 789 398 786 c 0
 344 781 302 767 267 743 c 0
 222 713 195 658 197 603 c 0
 198 580 202 564 211 546 c 0
 224 521 241 501 269 483 c 0
 280 476 303 465 317 460 c 0
 358 444 407 434 463 429 c 0
 559 421 634 402 693 372 c 0
 702 367 714 362 720 358 c 0
 777 322 806 274 809 218 c 0
 811 164 790 114 751 77 c 0
 718 45 665 21 604 8 c 0
 561 -1 525 -4 464 -5 c 0
 347 -6 263 5 197 30 c 0
 139 54 105 88 102 127 c 2
 102 135 l 1
 106 138 l 2
 114 146 130 150 153 150 c 0
 175 150 191 146 198 139 c 0
 203 135 203 134 203 128 c 0
 206 100 224 77 258 61 c 0
 290 46 331 38 385 34 c 0
 408 32 489 32 506 34 c 0
 562 39 602 51 637 75 c 0
 695 114 723 194 700 259 c 0
 684 308 640 344 571 368 c 0
 533 380 495 386 446 391 c 0
 344 400 266 420 207 451 c 0
 168 471 137 496 120 524 c 0
 109 539 101 562 97 581 c 0
 95 592 94 612 96 625 c 0
 102 683 135 733 187 766 c 0
 241 800 313 819 407 824 c 0
EndSplineSet
EndChar

StartChar: T
Encoding: 84 84 51
Width: 859
VWidth: 910
Flags: HW
LayerCount: 2
Fore
SplineSet
110 818 m 0
 118 819 740 819 748 818 c 0
 774 814 789 805 780 795 c 0
 776 790 763 785 748 783 c 0
 743 782 689 782 611 782 c 2
 481 782 l 1
 481 399 l 1
 481 15 l 1
 478 13 l 2
 461 -4 397 -3 382 13 c 2
 380 16 l 1
 380 400 l 1
 380 782 l 1
 248 782 l 2
 170 782 116 782 111 783 c 0
 85 787 70 796 79 806 c 0
 83 811 96 816 110 818 c 0
EndSplineSet
EndChar

StartChar: U
Encoding: 85 85 52
Width: 910
VWidth: 910
Flags: HW
LayerCount: 2
Fore
SplineSet
135 818 m 0
 160 822 190 816 200 806 c 2
 203 804 l 1
 203 538 l 2
 204 249 203 269 208 238 c 0
 215 197 229 160 249 130 c 0
 283 80 335 48 400 36 c 0
 419 32 430 33 456 33 c 0
 481 33 493 32 512 36 c 0
 616 54 684 127 703 238 c 0
 708 269 707 250 708 538 c 2
 709 804 l 1
 712 806 l 2
 727 822 789 823 806 806 c 2
 809 804 l 1
 809 537 l 2
 808 297 808 270 807 259 c 0
 804 242 802 226 798 211 c 0
 768 86 674 14 519 -2 c 0
 448 -10 370 -3 309 14 c 0
 194 47 126 121 107 236 c 0
 102 267 103 248 102 537 c 2
 102 803 l 1
 105 806 l 2
 110 811 120 815 135 818 c 0
EndSplineSet
EndChar

StartChar: V
Encoding: 86 86 53
Width: 961
VWidth: 910
Flags: HW
LayerCount: 2
Fore
SplineSet
110 818 m 0
 135 821 164 816 174 807 c 0
 176 804 202 740 329 431 c 0
 412 226 481 58 481 58 c 1
 481 58 550 226 633 431 c 0
 760 740 785 804 787 807 c 0
 792 812 801 815 816 818 c 0
 848 823 885 814 885 801 c 0
 885 797 566 15 563 12 c 0
 559 9 551 5 542 3 c 0
 534 1 532 1 481 1 c 0
 430 1 428 1 420 3 c 0
 411 5 402 9 398 12 c 0
 395 15 76 797 76 801 c 0
 76 808 91 815 110 818 c 0
EndSplineSet
EndChar

StartChar: W
Encoding: 87 87 54
Width: 1365
VWidth: 910
Flags: HW
LayerCount: 2
Fore
SplineSet
110 818 m 0
 135 822 165 816 174 806 c 0
 177 804 194 749 290 437 c 0
 353 235 405 69 405 69 c 2
 405 68 457 222 519 411 c 2
 633 754 l 1
 637 757 l 2
 641 761 647 763 657 766 c 0
 662 767 668 767 683 767 c 0
 698 767 703 767 708 766 c 0
 718 763 724 761 728 757 c 2
 733 754 l 1
 847 411 l 2
 909 222 960 68 960 69 c 2
 960 69 1012 235 1075 437 c 0
 1171 749 1188 804 1191 806 c 0
 1196 811 1206 815 1221 818 c 0
 1252 823 1289 814 1289 801 c 0
 1289 799 1234 623 1167 407 c 0
 1064 73 1046 15 1043 13 c 0
 1038 8 1029 4 1014 1 c 0
 1001 -1 920 -1 907 1 c 0
 892 4 882 8 877 13 c 0
 875 16 859 64 779 306 c 0
 726 465 683 595 683 595 c 1
 683 595 639 465 586 306 c 0
 506 64 490 16 488 13 c 0
 483 8 473 4 458 1 c 0
 445 -1 364 -1 351 1 c 0
 336 4 327 8 322 13 c 0
 319 15 301 73 198 407 c 0
 131 623 76 799 76 801 c 0
 76 808 91 815 110 818 c 0
EndSplineSet
EndChar

StartChar: X
Encoding: 88 88 55
Width: 910
VWidth: 910
Flags: HW
LayerCount: 2
Fore
SplineSet
137 818 m 0
 162 822 191 816 199 806 c 0
 201 805 259 732 328 645 c 0
 398 558 454 487 455 487 c 0
 456 487 513 558 583 645 c 0
 652 732 709 805 711 806 c 0
 712 808 715 810 719 812 c 0
 743 824 795 820 806 806 c 0
 810 802 809 800 807 797 c 0
 806 795 739 710 657 607 c 0
 575 504 509 420 509 419 c 2
 509 419 578 330 664 223 c 0
 750 116 820 27 821 25 c 0
 826 19 823 12 814 7 c 0
 789 -5 739 -2 725 13 c 0
 724 15 663 92 590 184 c 0
 516 276 456 352 455 352 c 0
 454 352 394 276 320 184 c 0
 247 92 186 15 185 13 c 0
 171 -2 121 -5 96 7 c 0
 87 12 84 19 89 25 c 0
 90 27 161 116 247 223 c 0
 333 330 401 419 401 419 c 2
 401 420 336 503 255 605 c 0
 174 706 107 791 105 794 c 0
 101 799 101 802 105 806 c 0
 109 811 122 816 137 818 c 0
EndSplineSet
EndChar

StartChar: Y
Encoding: 89 89 56
Width: 910
VWidth: 910
Flags: HW
LayerCount: 2
Fore
SplineSet
137 818 m 0
 144 819 169 818 177 816 c 0
 185 814 192 813 196 810 c 0
 198 808 257 737 327 651 c 0
 397 565 454 494 455 494 c 2
 455 494 513 565 583 651 c 0
 653 737 712 808 714 809 c 0
 734 824 793 821 806 806 c 0
 810 802 809 801 808 797 c 0
 807 796 739 712 656 611 c 2
 506 427 l 1
 506 221 l 1
 506 15 l 1
 503 13 l 2
 486 -4 423 -3 408 13 c 2
 405 16 l 1
 405 221 l 1
 405 426 l 1
 262 601 l 2
 184 697 116 780 111 786 c 0
 104 795 102 798 102 800 c 0
 102 808 115 815 137 818 c 0
EndSplineSet
EndChar

StartChar: Z
Encoding: 90 90 57
Width: 859
VWidth: 910
Flags: HW
LayerCount: 2
Fore
SplineSet
110 818 m 0
 118 819 740 819 748 818 c 0
 769 815 783 808 783 801 c 0
 783 798 745 748 489 418 c 2
 194 38 l 1
 472 37 l 2
 726 36 751 36 756 35 c 0
 774 30 783 25 783 18 c 0
 783 11 769 4 748 1 c 0
 739 0 120 0 111 1 c 0
 90 4 76 11 76 18 c 0
 76 21 114 71 370 401 c 2
 665 782 l 1
 387 782 l 2
 133 783 108 783 103 784 c 0
 85 789 76 794 76 801 c 0
 76 808 90 815 110 818 c 0
EndSplineSet
EndChar

StartChar: bracketleft
Encoding: 91 91 58
Width: 404
VWidth: 910
Flags: HW
LayerCount: 2
Fore
SplineSet
84 869 m 0
 92 870 308 871 319 869 c 0
 346 865 359 855 350 846 c 0
 345 841 334 836 319 834 c 0
 315 833 278 833 232 833 c 2
 152 833 l 1
 152 410 l 1
 152 -14 l 1
 232 -14 l 2
 278 -14 315 -14 319 -15 c 0
 334 -17 345 -21 350 -26 c 0
 359 -35 346 -46 319 -50 c 0
 315 -51 267 -51 202 -51 c 0
 111 -51 91 -51 84 -50 c 0
 69 -47 59 -43 54 -38 c 2
 51 -35 l 1
 51 410 l 1
 51 854 l 1
 54 857 l 2
 59 862 69 866 84 869 c 0
EndSplineSet
EndChar

StartChar: backslash
Encoding: 92 92 59
Width: 708
VWidth: 910
Flags: HW
LayerCount: 2
Fore
SplineSet
85 818 m 0
 95 819 110 819 119 818 c 0
 134 815 144 811 149 806 c 0
 150 804 266 627 404 412 c 0
 596 115 657 20 657 18 c 0
 657 16 656 15 654 13 c 0
 637 -4 575 -3 559 13 c 0
 558 15 442 192 304 407 c 0
 112 704 51 799 51 801 c 0
 51 808 66 815 85 818 c 0
EndSplineSet
EndChar

StartChar: bracketright
Encoding: 93 93 60
Width: 404
VWidth: 910
Flags: HW
LayerCount: 2
Fore
SplineSet
85 869 m 0
 93 870 311 870 319 869 c 0
 334 867 345 862 350 857 c 2
 353 855 l 1
 353 410 l 1
 353 -35 l 1
 350 -38 l 2
 345 -43 334 -48 319 -50 c 0
 310 -51 95 -51 86 -50 c 0
 59 -46 45 -35 54 -26 c 0
 59 -21 71 -17 86 -15 c 0
 90 -14 126 -14 172 -14 c 2
 252 -14 l 1
 252 410 l 1
 252 833 l 1
 172 833 l 2
 126 833 90 833 86 834 c 0
 65 837 51 844 51 852 c 0
 51 859 66 866 85 869 c 0
EndSplineSet
EndChar

StartChar: asciicircum
Encoding: 94 94 61
Width: 506
VWidth: 910
Flags: HW
LayerCount: 2
Fore
SplineSet
238 818 m 0
 257 821 283 817 295 811 c 0
 298 809 448 678 452 673 c 0
 454 671 455 669 455 667 c 0
 455 662 446 656 431 652 c 0
 420 649 392 649 380 651 c 0
 364 655 367 653 308 705 c 0
 278 731 253 752 253 752 c 1
 253 752 228 731 198 705 c 0
 139 653 142 655 126 651 c 0
 114 649 87 649 76 652 c 0
 61 656 51 662 51 667 c 0
 51 669 52 671 54 673 c 0
 56 675 90 707 132 743 c 0
 188 793 208 809 213 812 c 0
 218 815 228 817 238 818 c 0
EndSplineSet
EndChar

StartChar: underscore
Encoding: 95 95 62
Width: 910
VWidth: 910
Flags: HW
LayerCount: 2
Fore
SplineSet
33 -1 m 0
 42 0 865 1 876 -1 c 0
 903 -5 916 -16 907 -25 c 0
 902 -30 891 -34 876 -36 c 0
 871 -37 714 -37 455 -37 c 0
 98 -37 40 -37 33 -36 c 0
 18 -33 8 -30 3 -25 c 0
 -1 -20 -1 -18 3 -13 c 0
 8 -8 18 -4 33 -1 c 0
EndSplineSet
EndChar

StartChar: a
Encoding: 97 97 63
Width: 859
VWidth: 910
Flags: HW
LayerCount: 2
Fore
SplineSet
366 619 m 0
 391 620 464 620 481 619 c 0
 553 615 606 606 653 587 c 0
 685 574 707 560 725 541 c 0
 736 530 746 515 751 503 c 0
 752 501 753 498 755 496 c 2
 758 492 l 1
 758 254 l 1
 758 15 l 1
 755 13 l 2
 738 -4 675 -3 660 13 c 2
 657 16 l 1
 657 35 l 1
 657 53 l 1
 649 47 l 2
 638 41 617 30 604 25 c 0
 556 5 496 -5 428 -5 c 0
 317 -5 231 15 175 57 c 0
 137 86 113 127 104 176 c 0
 102 188 102 222 104 234 c 0
 118 310 165 361 251 390 c 0
 300 407 371 417 433 414 c 0
 497 412 525 414 570 425 c 0
 617 438 643 451 653 471 c 0
 657 477 657 482 653 492 c 0
 644 519 622 541 592 556 c 0
 565 569 534 576 494 581 c 0
 460 584 367 583 326 579 c 0
 275 575 225 564 212 553 c 0
 207 549 204 541 203 535 c 0
 203 530 202 529 199 527 c 0
 184 510 120 511 105 527 c 0
 101 532 101 535 104 543 c 0
 106 550 109 557 115 563 c 0
 128 577 150 586 188 596 c 0
 240 610 299 617 366 619 c 0
656 246 m 0
 657 254 657 285 657 331 c 2
 657 403 l 1
 652 401 l 2
 639 397 600 389 584 386 c 0
 542 378 503 375 461 377 c 0
 398 379 369 376 337 369 c 0
 299 359 264 339 243 315 c 0
 189 253 189 157 243 95 c 0
 262 73 294 54 330 43 c 0
 376 30 453 28 499 40 c 0
 536 49 573 70 596 95 c 0
 631 133 651 183 656 246 c 0
EndSplineSet
EndChar

StartChar: b
Encoding: 98 98 64
Width: 859
VWidth: 910
Flags: HW
LayerCount: 2
Fore
SplineSet
135 818 m 0
 160 822 190 816 200 806 c 2
 203 804 l 1
 203 697 l 1
 203 592 l 1
 211 596 l 2
 263 623 340 639 427 639 c 0
 540 639 629 608 685 549 c 0
 737 494 764 416 764 316 c 0
 764 246 750 183 724 137 c 0
 699 90 662 57 614 33 c 0
 553 3 479 -10 387 -5 c 0
 315 -1 259 11 213 34 c 2
 203 38 l 1
 203 26 l 1
 203 15 l 1
 200 13 l 2
 183 -4 120 -3 105 13 c 2
 102 16 l 1
 102 410 l 1
 102 803 l 1
 105 806 l 2
 110 811 120 815 135 818 c 0
467 599 m 0
 445 603 401 602 374 599 c 0
 320 592 274 570 246 538 c 0
 222 511 208 476 204 437 c 0
 203 430 203 389 203 301 c 2
 204 177 l 1
 206 165 l 2
 215 123 236 91 270 69 c 0
 299 50 334 39 379 34 c 0
 400 32 449 32 464 34 c 0
 574 50 643 130 659 258 c 0
 667 321 661 389 645 441 c 0
 623 507 586 553 532 579 c 0
 510 589 491 595 467 599 c 0
EndSplineSet
EndChar

StartChar: c
Encoding: 99 99 65
Width: 859
VWidth: 910
Flags: HW
LayerCount: 2
Fore
SplineSet
395 619 m 0
 412 620 496 619 521 618 c 0
 581 613 628 606 669 592 c 0
 720 576 750 552 756 525 c 0
 759 515 759 512 755 507 c 0
 747 498 721 492 696 495 c 0
 678 497 665 501 660 507 c 0
 658 510 657 512 657 517 c 0
 656 523 652 533 647 539 c 0
 632 558 583 574 522 579 c 0
 485 583 415 584 394 581 c 0
 304 567 244 515 215 429 c 0
 207 406 202 382 198 352 c 0
 196 331 196 283 198 262 c 0
 203 223 211 192 224 162 c 0
 249 104 292 64 350 45 c 0
 365 40 377 37 394 34 c 0
 415 31 485 31 522 35 c 0
 583 40 632 57 647 76 c 0
 652 82 656 91 657 97 c 0
 657 102 658 104 660 107 c 0
 675 124 740 123 755 107 c 0
 759 102 759 99 756 89 c 0
 750 62 720 39 669 23 c 0
 628 9 580 1 521 -4 c 0
 491 -6 423 -7 400 -5 c 0
 237 5 139 76 107 206 c 0
 99 239 96 265 96 308 c 0
 96 342 97 356 102 382 c 0
 117 469 160 534 228 573 c 0
 272 598 328 614 395 619 c 0
EndSplineSet
EndChar

StartChar: d
Encoding: 100 100 66
Width: 859
VWidth: 910
Flags: HW
LayerCount: 2
Fore
SplineSet
690 818 m 0
 715 822 745 816 755 806 c 2
 758 804 l 1
 758 410 l 1
 758 15 l 1
 755 13 l 2
 738 -4 675 -3 660 13 c 0
 657 17 657 16 657 26 c 2
 657 36 l 2
 656 36 653 35 648 33 c 0
 593 8 522 -5 434 -5 c 0
 301 -5 206 36 152 116 c 0
 126 155 110 201 104 260 c 0
 102 280 102 334 104 354 c 0
 113 435 140 495 186 539 c 0
 242 593 326 620 434 620 c 0
 522 620 593 607 648 582 c 0
 653 580 656 578 657 578 c 2
 657 690 l 1
 657 803 l 1
 660 806 l 2
 665 811 675 815 690 818 c 0
484 581 m 0
 470 582 419 583 412 582 c 0
 388 580 374 577 356 571 c 0
 303 554 263 518 237 467 c 0
 220 433 210 398 205 352 c 0
 203 332 203 282 205 262 c 0
 213 186 237 131 278 91 c 0
 309 60 348 42 397 34 c 0
 404 33 413 33 436 33 c 0
 477 33 502 35 528 42 c 0
 566 51 601 70 620 92 c 0
 640 115 651 141 656 171 c 0
 658 186 658 428 656 443 c 0
 652 468 644 491 630 510 c 0
 615 531 598 544 573 556 c 0
 546 570 519 577 484 581 c 0
EndSplineSet
EndChar

StartChar: e
Encoding: 101 101 67
Width: 834
VWidth: 910
Flags: HW
LayerCount: 2
Fore
SplineSet
384 619 m 0
 401 620 433 620 448 619 c 0
 545 613 621 580 667 524 c 0
 709 474 731 409 734 323 c 2
 734 304 l 1
 731 301 l 2
 725 296 714 291 699 289 c 0
 694 288 597 289 444 289 c 2
 197 289 l 1
 198 283 l 1
 201 243 204 216 212 191 c 0
 236 115 283 65 349 43 c 0
 374 35 394 32 429 32 c 0
 495 32 540 37 576 49 c 0
 612 60 630 75 633 98 c 0
 633 103 633 104 635 107 c 0
 650 124 716 123 731 106 c 0
 734 103 734 102 734 97 c 0
 732 82 727 71 715 59 c 0
 700 44 677 32 644 21 c 0
 603 8 560 0 499 -4 c 0
 475 -6 408 -6 389 -5 c 0
 321 0 262 17 218 44 c 0
 187 63 158 92 140 123 c 0
 113 167 101 212 96 283 c 1
 96 291 l 1
 91 292 l 2
 89 293 85 295 81 296 c 0
 65 304 69 316 91 322 c 2
 96 323 l 1
 96 331 l 1
 101 402 113 447 140 492 c 0
 158 522 187 552 218 571 c 0
 261 597 320 614 384 619 c 0
453 580 m 0
 438 582 411 584 396 582 c 0
 353 577 313 560 281 534 c 0
 256 513 234 481 220 446 c 0
 206 413 201 381 198 331 c 1
 197 326 l 1
 414 326 l 1
 633 326 l 1
 632 333 l 2
 631 358 627 387 622 408 c 0
 598 504 539 565 453 580 c 0
EndSplineSet
EndChar

StartChar: f
Encoding: 102 102 68
Width: 631
VWidth: 910
Flags: HW
LayerCount: 2
Fore
SplineSet
333 824 m 0
 342 825 380 824 391 823 c 0
 466 813 521 780 556 724 c 0
 588 673 603 607 606 518 c 2
 606 494 l 1
 604 492 l 2
 600 487 593 484 582 481 c 0
 576 479 571 479 556 479 c 0
 535 479 527 480 515 485 c 0
 505 490 505 490 505 518 c 0
 503 563 499 597 492 630 c 0
 478 683 454 730 425 755 c 0
 400 777 368 790 347 786 c 0
 327 783 303 772 283 755 c 0
 249 725 222 670 211 606 c 0
 206 574 204 551 203 495 c 2
 203 448 l 1
 324 448 l 2
 444 447 445 447 452 445 c 0
 485 437 485 421 452 413 c 0
 445 411 444 412 324 411 c 2
 203 411 l 1
 203 223 l 1
 203 35 l 1
 208 34 l 2
 210 33 214 31 218 30 c 0
 239 20 226 6 193 1 c 0
 184 0 120 0 111 1 c 0
 85 5 70 15 79 25 c 0
 81 28 90 32 97 34 c 2
 102 35 l 1
 102 224 l 1
 102 413 l 1
 97 414 l 2
 90 416 81 420 79 423 c 0
 75 427 75 431 79 435 c 0
 81 438 90 442 97 444 c 2
 102 445 l 1
 102 494 l 2
 103 545 103 561 107 590 c 0
 118 672 150 737 196 774 c 0
 232 804 275 819 333 824 c 0
EndSplineSet
EndChar

StartChar: g
Encoding: 103 103 69
Width: 859
VWidth: 910
Flags: HW
LayerCount: 2
Fore
SplineSet
395 619 m 0
 412 620 496 619 521 618 c 0
 570 614 607 609 642 600 c 0
 653 597 657 596 657 597 c 0
 657 598 659 600 660 602 c 0
 675 618 738 619 755 602 c 2
 758 599 l 1
 758 248 l 1
 758 -101 l 1
 755 -108 l 2
 749 -126 734 -144 712 -158 c 0
 687 -173 647 -189 603 -197 c 0
 554 -207 507 -210 431 -210 c 0
 355 -210 306 -207 258 -197 c 0
 213 -189 173 -173 148 -158 c 0
 120 -141 104 -119 102 -94 c 0
 102 -88 102 -87 105 -84 c 0
 108 -80 116 -76 126 -74 c 0
 132 -72 136 -72 153 -72 c 0
 174 -72 182 -73 193 -78 c 0
 200 -82 203 -85 203 -93 c 0
 205 -114 219 -131 245 -145 c 0
 272 -159 310 -167 361 -171 c 0
 383 -173 477 -173 499 -171 c 0
 550 -167 588 -159 615 -145 c 0
 635 -134 649 -121 654 -106 c 2
 656 -99 l 1
 657 -41 l 2
 657 -8 657 18 656 18 c 2
 656 18 650 16 644 15 c 0
 608 5 569 0 521 -4 c 0
 491 -6 423 -7 400 -5 c 0
 237 5 139 76 107 206 c 0
 99 239 96 265 96 308 c 0
 96 342 97 356 102 382 c 0
 117 469 160 534 228 573 c 0
 272 598 328 614 395 619 c 0
485 582 m 0
 464 583 421 583 411 582 c 0
 350 578 295 553 259 511 c 0
 225 471 205 419 198 352 c 0
 196 331 196 283 198 262 c 0
 203 223 211 192 224 162 c 0
 249 104 292 64 350 45 c 0
 365 40 377 37 394 34 c 0
 415 31 485 31 522 35 c 0
 583 40 632 57 647 76 c 0
 649 79 652 82 654 86 c 2
 657 93 l 1
 657 308 l 1
 657 522 l 1
 654 528 l 2
 652 532 649 536 647 539 c 0
 638 551 617 561 587 568 c 0
 556 576 529 580 485 582 c 0
EndSplineSet
EndChar

StartChar: h
Encoding: 104 104 70
Width: 859
VWidth: 910
Flags: HW
LayerCount: 2
Fore
SplineSet
135 818 m 0
 160 822 190 816 200 806 c 2
 203 804 l 1
 203 700 l 2
 203 602 203 596 205 596 c 0
 206 597 212 599 219 600 c 0
 253 609 291 614 339 618 c 0
 368 620 439 621 461 619 c 0
 542 614 606 593 655 556 c 0
 669 546 690 526 701 512 c 0
 734 466 752 410 757 341 c 0
 758 331 758 269 758 171 c 2
 758 15 l 1
 755 13 l 2
 738 -4 675 -3 660 13 c 2
 657 16 l 1
 657 171 l 2
 657 265 657 331 656 340 c 0
 652 387 643 426 627 461 c 0
 595 527 540 569 467 580 c 0
 451 583 414 584 379 582 c 0
 334 580 306 577 278 570 c 0
 235 559 214 547 206 528 c 2
 204 523 l 1
 203 269 l 1
 203 15 l 1
 200 13 l 2
 183 -4 120 -3 105 13 c 2
 102 16 l 1
 102 410 l 1
 102 803 l 1
 105 806 l 2
 110 811 120 815 135 818 c 0
EndSplineSet
EndChar

StartChar: i
Encoding: 105 105 71
Width: 455
VWidth: 910
Flags: HW
LayerCount: 2
Fore
SplineSet
211 735 m 0
 215 735 223 735 231 735 c 0
 243 734 247 735 255 733 c 0
 266 729 272 727 276 722 c 0
 280 718 280 716 276 712 c 0
 272 707 266 705 255 701 c 0
 246 699 244 699 228 699 c 0
 212 699 209 699 201 701 c 0
 196 703 190 704 187 706 c 0
 182 709 177 713 177 716 c 0
 177 720 180 723 185 726 c 0
 190 729 203 734 211 735 c 0
186 613 m 0
 194 614 261 614 269 613 c 0
 295 609 309 600 300 590 c 0
 298 587 289 583 283 581 c 2
 279 580 l 1
 279 308 l 1
 279 35 l 1
 283 34 l 2
 285 33 289 31 293 30 c 0
 314 20 302 6 269 1 c 0
 260 0 196 0 187 1 c 0
 161 5 146 15 155 25 c 0
 157 28 166 32 173 34 c 2
 177 35 l 1
 177 307 l 1
 177 580 l 1
 173 581 l 2
 166 583 157 587 155 590 c 0
 151 594 151 598 155 602 c 0
 159 607 172 611 186 613 c 0
EndSplineSet
EndChar

StartChar: j
Encoding: 106 106 72
Width: 607
VWidth: 910
Flags: HW
LayerCount: 2
Fore
SplineSet
439 735 m 0
 443 735 451 735 459 735 c 0
 471 734 474 735 482 733 c 0
 493 729 499 727 503 722 c 0
 507 718 507 716 503 712 c 0
 499 707 493 705 482 701 c 0
 473 699 471 699 455 699 c 0
 439 699 437 699 429 701 c 0
 424 703 417 704 414 706 c 0
 409 709 404 713 404 716 c 0
 404 720 407 723 412 726 c 0
 417 729 431 734 439 735 c 0
413 613 m 0
 421 614 488 614 496 613 c 0
 522 609 537 600 528 590 c 0
 526 587 517 583 511 581 c 2
 506 580 l 1
 506 373 l 2
 506 252 506 158 505 144 c 0
 501 45 486 -25 455 -87 c 0
 442 -113 428 -134 410 -152 c 0
 375 -184 336 -202 284 -208 c 0
 271 -210 235 -210 222 -208 c 0
 162 -201 116 -178 81 -135 c 0
 53 -101 28 -46 15 15 c 0
 5 62 0 122 0 185 c 2
 0 202 l 1
 3 206 l 2
 18 222 81 223 98 206 c 2
 101 203 l 1
 101 186 l 2
 101 112 109 42 123 -7 c 0
 133 -44 150 -83 165 -106 c 0
 184 -135 210 -157 236 -168 c 0
 247 -173 252 -174 259 -172 c 0
 282 -167 309 -149 328 -125 c 0
 339 -112 347 -98 356 -81 c 0
 386 -20 400 48 404 146 c 0
 405 160 405 254 405 374 c 2
 405 580 l 1
 400 581 l 2
 393 583 384 587 382 590 c 0
 378 594 378 598 382 602 c 0
 386 607 399 611 413 613 c 0
EndSplineSet
EndChar

StartChar: k
Encoding: 107 107 73
Width: 809
VWidth: 910
Flags: HW
LayerCount: 2
Fore
SplineSet
135 818 m 0
 160 822 190 816 200 806 c 2
 203 804 l 1
 203 586 l 2
 203 413 203 370 204 370 c 0
 205 371 307 427 433 496 c 0
 559 566 664 623 667 625 c 0
 691 637 742 635 755 620 c 0
 759 616 760 613 755 608 c 0
 753 606 689 570 563 502 c 0
 460 445 376 397 376 397 c 2
 376 396 656 122 753 27 c 0
 758 22 758 22 758 19 c 0
 758 16 757 15 755 13 c 0
 740 -2 691 -5 667 8 c 0
 663 9 617 55 490 179 c 0
 395 272 315 350 311 353 c 2
 306 359 l 1
 255 330 l 1
 203 302 l 1
 203 158 l 1
 203 15 l 1
 200 13 l 2
 183 -4 120 -3 105 13 c 2
 102 16 l 1
 102 410 l 1
 102 803 l 1
 105 806 l 2
 110 811 120 815 135 818 c 0
EndSplineSet
EndChar

StartChar: l
Encoding: 108 108 74
Width: 455
VWidth: 910
Flags: HW
LayerCount: 2
Fore
SplineSet
210 818 m 0
 235 822 266 816 276 806 c 2
 279 804 l 1
 279 410 l 1
 279 15 l 1
 276 13 l 2
 259 -4 195 -3 180 13 c 2
 177 16 l 1
 177 410 l 1
 177 803 l 1
 180 806 l 2
 185 811 195 815 210 818 c 0
EndSplineSet
EndChar

StartChar: m
Encoding: 109 109 75
Width: 1213
VWidth: 910
Flags: HW
LayerCount: 2
Fore
SplineSet
341 619 m 0
 347 619 366 620 381 620 c 0
 410 619 423 618 446 613 c 0
 515 601 568 570 602 522 c 0
 607 516 607 515 608 517 c 0
 609 519 611 523 615 528 c 0
 649 572 701 601 767 613 c 0
 792 618 804 619 835 619 c 0
 865 619 876 618 901 613 c 0
 967 601 1019 572 1053 528 c 0
 1088 481 1106 421 1111 343 c 0
 1112 334 1112 261 1112 171 c 2
 1112 15 l 1
 1110 13 l 2
 1093 -4 1029 -3 1014 13 c 2
 1011 16 l 1
 1011 171 l 2
 1011 260 1011 332 1010 341 c 0
 1005 422 985 481 949 526 c 0
 926 552 894 573 859 580 c 0
 845 583 823 583 809 580 c 0
 774 573 742 552 719 526 c 0
 683 481 663 422 658 341 c 0
 657 332 657 260 657 170 c 2
 657 15 l 1
 654 13 l 2
 637 -4 574 -3 559 13 c 2
 556 16 l 1
 556 171 l 2
 556 324 557 344 553 370 c 0
 540 487 487 562 404 580 c 0
 396 582 392 582 374 582 c 0
 337 582 311 577 285 564 c 0
 255 549 234 530 220 501 c 0
 211 483 206 464 204 442 c 0
 203 436 203 365 203 224 c 2
 203 15 l 1
 200 13 l 2
 183 -4 120 -3 105 13 c 2
 102 16 l 1
 102 307 l 1
 102 598 l 1
 105 602 l 2
 120 618 183 619 200 602 c 0
 203 599 203 598 203 593 c 0
 203 590 203 587 204 587 c 0
 205 587 206 588 208 589 c 0
 210 590 218 592 223 595 c 0
 256 608 295 615 341 619 c 0
EndSplineSet
EndChar

StartChar: n
Encoding: 110 110 76
Width: 859
VWidth: 910
Flags: HW
LayerCount: 2
Fore
SplineSet
383 619 m 0
 404 620 445 620 462 619 c 0
 530 614 588 598 634 571 c 0
 667 551 695 522 715 489 c 0
 739 449 753 399 757 341 c 0
 758 331 758 269 758 171 c 2
 758 15 l 1
 755 13 l 2
 738 -4 675 -3 660 13 c 2
 657 16 l 1
 657 171 l 2
 657 265 657 331 656 340 c 0
 651 419 627 479 584 522 c 0
 553 553 514 573 467 580 c 0
 455 582 450 582 424 582 c 0
 393 582 379 581 357 578 c 0
 307 571 263 549 238 521 c 0
 222 502 211 479 206 454 c 2
 204 445 l 1
 203 230 l 1
 203 15 l 1
 200 13 l 2
 183 -4 120 -3 105 13 c 2
 102 16 l 1
 102 307 l 1
 102 598 l 1
 105 602 l 2
 120 618 183 619 200 602 c 2
 203 599 l 1
 203 588 l 1
 203 578 l 2
 204 578 207 580 212 582 c 0
 258 604 313 615 383 619 c 0
EndSplineSet
EndChar

StartChar: o
Encoding: 111 111 77
Width: 961
VWidth: 910
Flags: HW
LayerCount: 2
Fore
SplineSet
445 619 m 0
 458 620 528 619 544 618 c 0
 620 612 682 596 733 571 c 0
 766 555 788 538 812 515 c 0
 854 471 879 416 888 347 c 0
 890 329 890 286 888 268 c 0
 879 199 854 143 812 99 c 0
 788 76 766 60 733 44 c 0
 680 18 618 1 537 -4 c 0
 516 -6 445 -6 424 -4 c 0
 343 1 281 18 228 44 c 0
 195 60 173 76 149 99 c 0
 107 143 82 199 73 268 c 0
 71 286 71 329 73 347 c 0
 82 416 107 471 149 515 c 0
 173 538 195 555 228 571 c 0
 281 597 348 613 424 618 c 0
 433 619 442 619 445 619 c 0
529 581 m 0
 514 582 461 583 446 582 c 0
 410 580 377 573 350 565 c 0
 308 551 266 526 241 499 c 0
 204 459 182 408 174 345 c 0
 172 327 172 287 174 269 c 0
 182 206 204 156 241 116 c 0
 268 86 315 60 362 46 c 0
 383 41 408 36 434 34 c 0
 451 32 510 32 527 34 c 0
 576 39 614 48 651 66 c 0
 711 95 751 140 773 204 c 0
 784 238 788 268 788 308 c 0
 788 325 788 335 787 345 c 0
 779 408 757 459 720 499 c 0
 693 529 646 555 599 569 c 0
 578 574 554 579 529 581 c 0
EndSplineSet
EndChar

StartChar: p
Encoding: 112 112 78
Width: 834
VWidth: 910
Flags: HW
LayerCount: 2
Fore
SplineSet
381 619 m 0
 394 620 455 619 469 618 c 0
 526 612 571 600 611 581 c 0
 688 543 736 475 752 381 c 0
 757 355 757 342 757 308 c 0
 757 273 757 259 752 234 c 0
 730 106 653 30 518 4 c 0
 483 -2 459 -6 413 -5 c 0
 375 -5 360 -5 332 -1 c 0
 285 4 239 17 209 32 c 0
 206 34 204 35 204 35 c 2
 203 35 203 -15 203 -77 c 2
 203 -189 l 1
 200 -192 l 2
 183 -209 120 -208 105 -192 c 2
 102 -188 l 1
 102 205 l 1
 102 598 l 1
 105 602 l 2
 120 618 183 619 200 602 c 2
 203 599 l 1
 203 589 l 2
 203 584 203 580 204 580 c 2
 204 580 206 581 209 583 c 0
 245 601 302 614 361 618 c 0
 369 619 378 619 381 619 c 0
451 581 m 0
 443 582 400 583 390 582 c 0
 346 580 317 573 289 559 c 0
 282 555 272 550 268 547 c 0
 235 526 215 495 206 454 c 2
 204 443 l 1
 204 308 l 1
 204 172 l 1
 206 160 l 2
 215 119 235 88 268 67 c 0
 272 64 282 60 289 56 c 0
 314 44 337 38 372 34 c 0
 387 32 437 32 451 34 c 0
 484 38 516 48 542 63 c 0
 600 97 637 155 651 236 c 0
 656 261 656 275 656 308 c 0
 656 340 656 354 651 379 c 0
 636 468 591 531 523 562 c 0
 503 571 475 578 451 581 c 0
EndSplineSet
EndChar

StartChar: q
Encoding: 113 113 79
Width: 834
VWidth: 910
Flags: HW
LayerCount: 2
Fore
SplineSet
390 619 m 0
 398 620 463 619 475 618 c 0
 519 614 557 608 588 597 c 0
 601 593 619 587 627 582 c 0
 630 581 632 580 632 580 c 2
 633 580 633 584 633 589 c 0
 633 598 632 598 635 602 c 0
 650 618 714 619 731 602 c 2
 734 599 l 1
 734 205 l 1
 734 -189 l 1
 731 -192 l 2
 714 -209 650 -208 635 -192 c 2
 633 -188 l 1
 633 -76 l 2
 633 -15 633 35 632 35 c 2
 632 35 630 34 627 33 c 0
 605 22 567 9 535 4 c 0
 500 -2 467 -5 421 -5 c 0
 384 -5 374 -5 346 -1 c 0
 278 8 218 31 175 66 c 0
 132 101 103 148 88 208 c 0
 80 242 77 266 77 308 c 0
 77 349 80 373 88 407 c 0
 103 467 132 514 175 549 c 0
 218 584 278 606 346 615 c 0
 358 617 365 617 390 619 c 0
451 582 m 0
 436 583 408 583 398 582 c 0
 345 578 299 561 263 530 c 0
 216 491 187 429 179 347 c 0
 177 332 177 283 179 268 c 0
 185 202 205 151 237 111 c 0
 272 69 321 42 381 34 c 0
 414 30 468 32 502 40 c 0
 524 45 552 55 569 67 c 0
 601 88 621 119 630 160 c 2
 633 172 l 1
 633 308 l 1
 633 443 l 1
 630 454 l 2
 617 510 582 549 524 568 c 0
 503 575 480 580 451 582 c 0
EndSplineSet
EndChar

StartChar: r
Encoding: 114 114 80
Width: 758
VWidth: 910
Flags: HW
LayerCount: 2
Fore
SplineSet
370 619 m 0
 372 620 391 620 410 620 c 0
 498 620 560 613 615 597 c 0
 650 587 676 575 691 560 c 0
 701 549 707 536 707 524 c 0
 707 520 707 519 704 516 c 0
 699 510 686 506 668 504 c 0
 644 501 618 507 610 516 c 0
 607 518 607 520 606 525 c 0
 605 531 603 539 598 544 c 0
 588 557 562 568 525 574 c 0
 499 579 474 582 428 583 c 0
 392 583 368 582 349 579 c 0
 310 574 275 560 250 539 c 0
 228 520 213 494 206 461 c 2
 204 450 l 1
 203 242 l 1
 203 35 l 1
 208 34 l 2
 210 33 214 31 218 30 c 0
 239 20 226 6 193 1 c 0
 184 0 120 0 111 1 c 0
 85 5 70 15 79 25 c 0
 81 28 90 32 97 34 c 2
 102 35 l 1
 102 317 l 1
 102 598 l 1
 105 602 l 2
 120 618 183 619 200 602 c 0
 203 599 203 599 203 591 c 2
 203 583 l 2
 204 583 209 585 215 588 c 0
 258 606 299 615 370 619 c 0
EndSplineSet
EndChar

StartChar: s
Encoding: 115 115 81
Width: 859
VWidth: 910
Flags: HW
LayerCount: 2
Fore
SplineSet
387 619 m 0
 402 620 502 619 521 618 c 0
 581 613 628 606 669 592 c 0
 720 576 750 552 756 525 c 0
 759 515 759 512 755 507 c 0
 747 498 721 492 696 495 c 0
 678 497 665 501 660 507 c 0
 658 510 657 512 657 517 c 0
 656 523 652 533 647 539 c 0
 632 558 583 574 522 579 c 0
 487 583 403 584 371 581 c 0
 295 575 242 551 216 513 c 0
 210 503 202 489 199 478 c 0
 197 471 198 468 198 454 c 0
 198 432 200 420 208 403 c 0
 227 366 269 340 330 330 c 0
 355 325 363 325 400 326 c 0
 458 327 498 326 513 325 c 0
 643 314 726 271 751 203 c 0
 756 189 757 179 757 161 c 0
 757 145 758 143 755 133 c 0
 754 128 751 120 749 116 c 0
 735 83 706 53 666 35 c 0
 621 13 571 1 502 -4 c 0
 477 -6 377 -6 348 -4 c 0
 284 0 237 8 194 22 c 0
 140 38 110 61 104 89 c 0
 101 99 101 102 105 107 c 0
 110 113 123 117 141 119 c 0
 166 122 192 116 200 107 c 0
 202 104 203 102 203 97 c 0
 204 91 208 82 213 76 c 0
 228 57 277 40 337 35 c 0
 374 31 457 31 491 34 c 0
 534 39 570 49 596 64 c 0
 636 87 659 125 657 167 c 0
 655 191 648 210 634 228 c 0
 619 248 595 264 563 275 c 0
 529 286 495 291 449 289 c 0
 413 288 360 287 344 289 c 0
 271 294 211 311 169 336 c 0
 154 345 145 352 133 364 c 0
 115 382 103 402 98 427 c 0
 96 435 96 439 96 454 c 0
 96 470 96 472 99 482 c 0
 104 504 117 524 134 541 c 0
 154 561 175 573 208 587 c 0
 252 604 303 614 364 618 c 0
 373 619 383 619 387 619 c 0
EndSplineSet
EndChar

StartChar: t
Encoding: 116 116 82
Width: 607
VWidth: 910
Flags: HW
LayerCount: 2
Fore
SplineSet
286 818 m 0
 311 822 341 816 351 806 c 2
 354 804 l 1
 354 709 l 1
 354 614 l 1
 434 614 l 2
 480 614 518 614 522 613 c 0
 549 609 562 599 553 590 c 0
 548 585 537 580 522 578 c 0
 518 577 480 577 434 577 c 2
 354 577 l 1
 354 306 l 1
 354 35 l 1
 360 34 l 2
 371 30 380 23 380 18 c 0
 380 13 371 8 360 5 c 0
 348 1 339 0 304 0 c 0
 268 0 259 1 247 5 c 0
 236 8 228 14 228 19 c 0
 228 24 237 30 248 34 c 2
 253 35 l 1
 253 306 l 1
 253 577 l 1
 173 577 l 2
 127 577 90 577 86 578 c 0
 71 580 59 585 54 590 c 0
 45 599 59 609 86 613 c 0
 90 614 127 614 173 614 c 2
 253 614 l 1
 253 708 l 1
 253 803 l 1
 256 806 l 2
 261 811 271 815 286 818 c 0
EndSplineSet
EndChar

StartChar: u
Encoding: 117 117 83
Width: 859
VWidth: 910
Flags: HW
LayerCount: 2
Fore
SplineSet
135 613 m 0
 160 617 190 612 200 602 c 2
 203 599 l 1
 203 444 l 2
 203 349 203 284 204 276 c 0
 209 196 233 135 276 92 c 0
 307 61 346 42 393 35 c 0
 405 33 410 33 436 33 c 0
 467 33 481 33 503 36 c 0
 553 43 597 66 622 94 c 0
 638 113 649 135 654 161 c 2
 656 170 l 1
 657 384 l 1
 658 599 l 1
 661 602 l 2
 676 618 738 619 755 602 c 2
 758 599 l 1
 758 308 l 1
 758 15 l 1
 755 13 l 2
 738 -4 675 -3 660 13 c 0
 657 17 657 16 657 26 c 2
 657 36 l 2
 656 36 653 35 648 33 c 0
 593 8 522 -5 435 -5 c 0
 349 -5 280 11 226 44 c 0
 193 64 165 93 145 126 c 0
 121 166 107 215 103 273 c 0
 102 283 102 345 102 443 c 2
 102 598 l 1
 105 602 l 2
 110 607 120 610 135 613 c 0
EndSplineSet
EndChar

StartChar: v
Encoding: 118 118 84
Width: 809
VWidth: 910
Flags: HW
LayerCount: 2
Fore
SplineSet
110 613 m 0
 135 617 166 612 174 602 c 0
 176 600 213 514 290 329 c 0
 353 180 404 56 404 56 c 1
 404 56 456 179 519 329 c 0
 612 548 633 601 635 603 c 0
 640 608 649 610 664 613 c 0
 696 618 733 609 733 596 c 0
 733 591 491 16 487 13 c 0
 482 8 473 4 458 1 c 0
 445 -1 364 -1 351 1 c 0
 336 4 327 8 322 13 c 0
 318 16 76 591 76 596 c 0
 76 603 91 610 110 613 c 0
EndSplineSet
EndChar

StartChar: w
Encoding: 119 119 85
Width: 1264
VWidth: 910
Flags: HW
LayerCount: 2
Fore
SplineSet
58 613 m 0
 67 614 91 615 100 613 c 0
 114 609 122 605 126 600 c 0
 127 598 178 475 240 327 c 0
 303 179 354 57 354 57 c 1
 354 57 406 180 469 328 c 0
 548 517 582 599 584 602 c 0
 592 610 614 615 638 614 c 0
 662 612 678 607 683 598 c 0
 684 595 734 473 797 326 c 0
 859 179 910 57 910 57 c 1
 910 57 961 179 1024 327 c 0
 1086 475 1138 598 1139 600 c 0
 1141 603 1148 607 1153 609 c 0
 1176 617 1212 615 1229 607 c 0
 1234 604 1239 599 1239 596 c 0
 1239 593 995 15 993 12 c 0
 990 9 981 6 974 4 c 0
 961 0 953 0 905 0 c 0
 860 1 856 1 849 3 c 0
 836 6 829 10 826 15 c 0
 825 16 782 118 730 241 c 0
 678 364 635 467 634 470 c 2
 633 474 l 1
 559 299 l 2
 518 203 474 99 461 69 c 0
 448 38 438 14 437 12 c 0
 433 9 424 5 415 3 c 0
 408 1 405 1 360 0 c 0
 312 0 303 0 290 4 c 0
 283 6 274 9 271 12 c 0
 269 15 25 593 25 596 c 0
 25 599 30 604 35 606 c 0
 40 609 48 611 58 613 c 0
EndSplineSet
EndChar

StartChar: x
Encoding: 120 120 86
Width: 809
VWidth: 910
Flags: HW
LayerCount: 2
Fore
SplineSet
124 613 m 0
 129 613 136 614 146 614 c 0
 162 613 172 612 181 607 c 0
 186 604 193 598 291 493 c 0
 348 432 397 380 400 377 c 2
 405 372 l 1
 513 488 l 2
 616 598 623 604 628 607 c 0
 648 617 689 616 708 607 c 0
 718 602 720 595 715 589 c 0
 713 587 656 527 590 456 c 0
 523 384 465 323 462 320 c 2
 458 315 l 1
 585 179 l 2
 654 105 717 39 723 33 c 0
 732 24 733 22 733 19 c 0
 733 1 670 -7 642 8 c 0
 638 10 615 35 522 134 c 0
 457 202 405 258 405 258 c 2
 404 258 353 202 288 134 c 0
 165 3 170 8 158 5 c 0
 125 -5 76 3 76 19 c 0
 76 22 77 24 86 33 c 0
 92 39 155 105 224 179 c 2
 351 315 l 1
 347 320 l 2
 344 323 286 384 219 456 c 0
 153 527 97 587 95 589 c 0
 86 599 98 608 124 613 c 0
EndSplineSet
EndChar

StartChar: y
Encoding: 121 121 87
Width: 809
VWidth: 910
Flags: HW
LayerCount: 2
Fore
SplineSet
110 613 m 0
 135 617 166 612 174 602 c 0
 176 601 227 493 290 362 c 2
 404 126 l 1
 407 129 l 2
 408 132 459 239 521 367 c 0
 583 495 633 601 635 602 c 0
 640 607 649 610 664 613 c 0
 696 618 733 609 733 596 c 0
 733 592 357 -188 353 -192 c 0
 346 -200 323 -206 300 -205 c 0
 274 -203 256 -196 256 -187 c 0
 256 -185 273 -148 305 -83 c 2
 353 19 l 1
 215 306 l 2
 128 488 76 594 76 596 c 0
 76 603 91 610 110 613 c 0
EndSplineSet
EndChar

StartChar: z
Encoding: 122 122 88
Width: 809
VWidth: 910
Flags: HW
LayerCount: 2
Fore
SplineSet
110 613 m 0
 118 614 690 614 698 613 c 0
 719 610 733 603 733 595 c 0
 733 592 730 590 715 574 c 0
 706 564 586 440 449 298 c 2
 198 38 l 1
 450 37 l 2
 678 36 701 36 706 35 c 0
 724 30 733 25 733 18 c 0
 733 11 719 4 698 1 c 0
 689 0 120 0 111 1 c 0
 90 4 76 11 76 19 c 0
 76 22 79 24 94 40 c 0
 103 50 223 175 360 318 c 2
 611 577 l 1
 360 577 l 2
 132 578 108 578 103 579 c 0
 85 584 76 589 76 596 c 0
 76 603 90 610 110 613 c 0
EndSplineSet
EndChar

StartChar: braceleft
Encoding: 123 123 89
Width: 455
VWidth: 910
Flags: HW
LayerCount: 2
Fore
SplineSet
340 869 m 0
 358 871 377 869 390 864 c 0
 398 861 404 856 404 851 c 0
 404 843 388 835 367 833 c 0
 348 832 325 817 311 796 c 0
 301 781 291 757 285 735 c 0
 279 708 276 683 275 630 c 0
 274 583 274 568 269 543 c 0
 262 500 244 463 222 440 c 0
 213 431 200 420 189 414 c 0
 185 412 182 410 182 410 c 1
 182 410 185 407 189 405 c 0
 206 396 225 379 236 363 c 0
 251 340 264 309 269 276 c 0
 274 251 274 236 275 190 c 0
 276 146 276 128 281 106 c 0
 288 63 304 28 323 8 c 0
 337 -5 352 -13 367 -14 c 0
 387 -16 404 -24 404 -32 c 0
 404 -38 395 -43 382 -47 c 0
 354 -54 309 -50 275 -35 c 0
 250 -25 228 -6 213 15 c 0
 201 32 191 57 185 81 c 0
 178 110 175 133 174 188 c 0
 173 230 172 241 169 263 c 0
 163 304 149 341 130 364 c 0
 118 378 97 391 86 391 c 0
 74 391 55 397 49 403 c 0
 44 408 44 411 49 416 c 0
 55 422 74 428 86 428 c 0
 97 428 118 441 130 455 c 0
 149 478 163 515 169 557 c 0
 172 578 173 589 174 632 c 0
 175 675 175 693 180 715 c 0
 187 761 204 797 226 821 c 0
 252 848 292 865 340 869 c 0
EndSplineSet
EndChar

StartChar: bar
Encoding: 124 124 90
Width: 506
VWidth: 910
Flags: HW
LayerCount: 2
Fore
SplineSet
236 818 m 0
 261 822 291 816 301 806 c 2
 304 804 l 1
 304 410 l 1
 304 15 l 1
 301 13 l 2
 284 -4 221 -3 206 13 c 2
 203 16 l 1
 203 410 l 1
 203 803 l 1
 206 806 l 2
 211 811 221 815 236 818 c 0
EndSplineSet
EndChar

StartChar: braceright
Encoding: 125 125 91
Width: 455
VWidth: 910
Flags: HW
LayerCount: 2
Fore
SplineSet
78 869 m 0
 87 870 103 869 118 867 c 0
 160 862 196 846 221 820 c 0
 246 794 264 752 270 702 c 0
 273 683 274 671 275 632 c 0
 276 610 276 587 277 582 c 0
 280 555 283 533 290 512 c 0
 304 470 325 443 353 431 c 0
 358 429 362 429 370 428 c 0
 393 426 410 418 410 410 c 0
 410 402 393 393 370 391 c 0
 362 390 358 390 353 388 c 0
 325 376 304 350 290 308 c 0
 283 287 280 264 277 238 c 0
 276 232 276 209 275 188 c 0
 274 148 273 136 270 117 c 0
 264 67 246 25 221 -1 c 0
 192 -32 145 -50 92 -50 c 0
 76 -50 65 -50 55 -45 c 0
 47 -42 40 -37 40 -32 c 0
 40 -24 57 -16 78 -14 c 0
 83 -14 88 -13 91 -12 c 0
 102 -8 117 2 127 12 c 0
 147 35 163 73 169 117 c 0
 172 137 173 149 174 190 c 0
 175 237 176 255 181 279 c 0
 192 333 213 370 245 394 c 0
 250 399 264 407 269 409 c 0
 270 410 270 410 269 411 c 0
 264 413 250 420 245 425 c 0
 213 449 192 486 181 540 c 0
 176 564 175 582 174 630 c 0
 173 670 172 683 169 703 c 0
 163 747 147 784 127 807 c 0
 117 817 102 827 91 831 c 0
 88 832 83 833 78 833 c 0
 57 835 40 843 40 851 c 0
 40 859 56 867 78 869 c 0
EndSplineSet
EndChar

StartChar: asciitilde
Encoding: 126 126 92
Width: 1011
VWidth: 910
Flags: HW
LayerCount: 2
Fore
SplineSet
270 446 m 0
 279 447 346 446 357 445 c 0
 417 440 462 427 497 406 c 0
 512 396 528 382 538 367 c 0
 550 349 554 333 556 309 c 0
 557 300 558 291 559 286 c 0
 563 271 571 256 582 244 c 0
 596 229 622 214 649 209 c 0
 666 205 675 206 708 206 c 0
 740 206 749 205 766 209 c 0
 793 214 820 229 834 244 c 0
 849 260 857 280 859 301 c 0
 859 308 860 310 862 313 c 0
 877 329 941 330 958 313 c 2
 960 310 l 1
 960 301 l 2
 957 265 936 229 901 208 c 0
 866 186 820 174 760 169 c 0
 741 167 674 167 656 169 c 0
 602 174 564 183 530 200 c 0
 505 213 487 228 473 248 c 0
 461 266 457 282 455 307 c 0
 454 315 453 324 452 329 c 0
 448 344 441 358 430 370 c 0
 416 385 389 400 362 405 c 0
 345 409 336 409 304 409 c 0
 271 409 262 409 245 405 c 0
 218 400 191 385 177 370 c 0
 162 354 154 334 152 312 c 0
 152 304 152 304 148 300 c 0
 132 284 69 285 54 302 c 2
 51 305 l 1
 51 314 l 2
 54 350 76 385 110 406 c 0
 145 428 195 441 252 445 c 0
 259 446 267 446 270 446 c 0
EndSplineSet
EndChar

StartChar: Adieresis
Encoding: 196 196 93
Width: 961
VWidth: 910
Flags: HW
LayerCount: 2
Fore
SplineSet
379 913 m 0
 413 918 449 911 458 898 c 0
 462 893 462 892 458 887 c 0
 446 872 394 865 361 876 c 0
 347 881 340 887 340 893 c 0
 340 896 344 901 349 904 c 0
 354 908 368 912 379 913 c 0
540 913 m 0
 574 918 610 911 619 898 c 0
 623 893 623 892 619 887 c 0
 607 872 555 865 522 876 c 0
 508 881 501 887 501 893 c 0
 501 896 505 901 510 904 c 0
 515 908 529 912 540 913 c 0
430 818 m 0
 433 818 457 819 484 819 c 0
 531 818 535 818 542 816 c 0
 551 814 559 810 563 807 c 0
 566 804 885 22 885 18 c 0
 885 5 848 -4 816 1 c 0
 801 4 792 8 787 13 c 0
 785 15 767 61 722 168 c 2
 660 322 l 1
 481 322 l 1
 301 322 l 1
 239 168 l 2
 194 61 176 15 174 13 c 0
 169 8 160 4 145 1 c 0
 113 -4 76 5 76 18 c 0
 76 22 395 804 398 807 c 0
 403 812 415 816 430 818 c 0
563 561 m 2
 518 671 481 761 481 761 c 1
 481 761 444 671 399 561 c 2
 317 360 l 1
 399 360 l 1
 563 360 l 1
 644 360 l 1
 563 561 l 2
EndSplineSet
EndChar

StartChar: Ccedilla
Encoding: 199 199 94
Width: 910
VWidth: 910
Flags: HW
LayerCount: 2
Fore
SplineSet
423 824 m 0
 437 825 523 824 544 823 c 0
 621 818 676 809 729 791 c 0
 798 768 836 734 839 693 c 2
 839 684 l 1
 836 681 l 2
 828 673 811 669 789 669 c 0
 766 669 750 673 742 680 c 0
 738 684 738 684 738 689 c 0
 738 695 736 706 733 712 c 0
 727 726 717 735 702 745 c 0
 672 765 617 779 555 784 c 0
 520 788 455 788 436 786 c 0
 374 780 315 748 277 700 c 0
 223 632 197 537 197 410 c 0
 197 283 223 187 277 119 c 0
 315 71 374 39 436 33 c 0
 455 31 520 31 555 35 c 0
 617 40 672 55 702 75 c 0
 717 85 727 93 733 107 c 0
 736 113 738 124 738 130 c 0
 738 135 738 135 742 139 c 0
 750 146 766 150 789 150 c 0
 811 150 828 146 836 138 c 2
 839 135 l 1
 839 127 l 2
 837 101 821 76 792 57 c 0
 774 45 754 36 729 28 c 0
 679 11 624 2 555 -3 c 0
 552 -3 550 -4 549 -4 c 1
 549 -5 550 -5 551 -7 c 0
 556 -15 561 -30 561 -42 c 0
 561 -51 558 -65 554 -71 c 0
 544 -91 526 -105 499 -111 c 0
 484 -116 476 -116 457 -116 c 0
 442 -116 437 -116 430 -114 c 0
 404 -109 397 -95 416 -86 c 0
 421 -83 435 -80 440 -80 c 0
 444 -80 450 -73 454 -66 c 0
 462 -50 461 -30 451 -15 c 0
 445 -6 445 -6 427 -5 c 0
 354 0 291 19 241 53 c 0
 211 73 185 99 165 129 c 0
 126 188 104 256 97 352 c 0
 95 372 95 447 97 467 c 0
 105 573 131 649 179 710 c 0
 189 723 211 744 223 754 c 0
 277 795 341 818 423 824 c 0
EndSplineSet
EndChar

StartChar: Odieresis
Encoding: 214 214 95
Width: 1163
VWidth: 910
Flags: HW
LayerCount: 2
Fore
SplineSet
480 913 m 0
 514 918 550 911 559 898 c 0
 563 893 563 892 559 887 c 0
 547 872 495 865 462 876 c 0
 448 881 441 887 441 893 c 0
 441 896 445 901 450 904 c 0
 455 908 469 912 480 913 c 0
641 913 m 0
 675 918 711 911 720 898 c 0
 724 893 724 892 720 887 c 0
 708 872 657 865 624 876 c 0
 610 881 602 887 602 893 c 0
 602 896 606 901 611 904 c 0
 616 908 630 912 641 913 c 0
533 824 m 0
 541 824 562 825 578 825 c 0
 741 826 870 790 958 719 c 0
 1034 658 1077 571 1090 457 c 0
 1092 435 1092 384 1090 362 c 0
 1085 321 1078 284 1066 252 c 0
 1036 172 986 113 912 69 c 0
 829 20 718 -5 582 -5 c 0
 421 -5 293 30 206 100 c 0
 130 161 86 248 73 362 c 0
 71 384 71 435 73 457 c 0
 77 489 81 513 89 541 c 0
 113 624 160 690 228 736 c 0
 305 788 406 818 533 824 c 0
618 786 m 0
 540 790 462 782 406 762 c 0
 289 722 216 641 186 521 c 0
 168 451 168 369 186 299 c 0
 208 212 252 146 319 100 c 0
 387 54 473 32 582 32 c 0
 712 32 809 64 883 130 c 0
 914 158 943 201 961 246 c 0
 1001 346 1001 473 961 573 c 0
 930 650 878 707 802 744 c 0
 750 769 692 782 618 786 c 0
EndSplineSet
EndChar

StartChar: Udieresis
Encoding: 220 220 96
Width: 1011
VWidth: 910
Flags: HW
LayerCount: 2
Fore
SplineSet
403 913 m 0
 437 918 473 911 482 898 c 0
 486 893 486 892 482 887 c 0
 470 872 419 865 386 876 c 0
 372 881 364 887 364 893 c 0
 364 896 368 901 373 904 c 0
 378 908 392 912 403 913 c 0
565 913 m 0
 599 918 635 911 644 898 c 0
 648 893 648 892 644 887 c 0
 632 872 581 865 548 876 c 0
 534 881 526 887 526 893 c 0
 526 896 530 901 535 904 c 0
 540 908 554 912 565 913 c 0
135 818 m 0
 160 822 190 816 200 806 c 2
 203 804 l 1
 203 572 l 2
 203 424 203 334 204 324 c 0
 208 268 218 223 239 181 c 0
 278 102 348 52 441 37 c 0
 464 32 477 33 506 33 c 0
 535 33 548 32 571 37 c 0
 642 48 701 81 742 131 c 0
 781 180 803 246 808 324 c 0
 809 334 809 424 809 571 c 2
 809 803 l 1
 812 806 l 2
 827 822 890 823 907 806 c 2
 910 804 l 1
 910 571 l 2
 910 422 910 332 909 322 c 0
 902 206 856 119 776 64 c 0
 726 30 661 8 585 -1 c 0
 556 -5 543 -5 506 -5 c 0
 469 -5 456 -5 427 -1 c 0
 351 8 286 30 237 64 c 0
 156 119 110 206 103 322 c 0
 102 332 102 422 102 570 c 2
 102 803 l 1
 105 806 l 2
 110 811 120 815 135 818 c 0
EndSplineSet
EndChar

StartChar: adieresis
Encoding: 228 228 97
Width: 859
VWidth: 910
Flags: HW
LayerCount: 2
Fore
SplineSet
328 708 m 0
 362 713 398 707 407 694 c 0
 411 689 411 687 407 682 c 0
 395 667 343 660 310 671 c 0
 296 676 289 682 289 688 c 0
 289 691 293 696 298 699 c 0
 303 703 317 707 328 708 c 0
489 708 m 0
 523 713 559 707 568 694 c 0
 572 689 572 687 568 682 c 0
 556 667 504 660 471 671 c 0
 457 676 450 682 450 688 c 0
 450 691 454 696 459 699 c 0
 464 703 478 707 489 708 c 0
366 619 m 0
 391 620 464 620 481 619 c 0
 553 615 606 606 653 587 c 0
 685 574 707 560 725 541 c 0
 736 530 746 515 751 503 c 0
 752 501 753 498 755 496 c 2
 758 492 l 1
 758 254 l 1
 758 15 l 1
 755 13 l 2
 738 -4 675 -3 660 13 c 2
 657 16 l 1
 657 35 l 1
 657 53 l 1
 649 47 l 2
 638 41 617 30 604 25 c 0
 556 5 496 -5 428 -5 c 0
 317 -5 231 15 175 57 c 0
 137 86 113 127 104 176 c 0
 102 188 102 222 104 234 c 0
 118 310 165 361 251 390 c 0
 300 407 371 417 433 414 c 0
 497 412 525 414 570 425 c 0
 617 438 643 451 653 471 c 0
 657 477 657 482 653 492 c 0
 644 519 622 541 592 556 c 0
 565 569 534 576 494 581 c 0
 460 584 367 583 326 579 c 0
 275 575 225 564 212 553 c 0
 207 549 204 541 203 535 c 0
 203 530 202 529 199 527 c 0
 184 510 120 511 105 527 c 0
 101 532 101 535 104 543 c 0
 106 550 109 557 115 563 c 0
 128 577 150 586 188 596 c 0
 240 610 299 617 366 619 c 0
656 246 m 0
 657 254 657 285 657 331 c 2
 657 403 l 1
 652 401 l 2
 639 397 600 389 584 386 c 0
 542 378 503 375 461 377 c 0
 398 379 369 376 337 369 c 0
 299 359 264 339 243 315 c 0
 189 253 189 157 243 95 c 0
 262 73 294 54 330 43 c 0
 376 30 453 28 499 40 c 0
 536 49 573 70 596 95 c 0
 631 133 651 183 656 246 c 0
EndSplineSet
EndChar

StartChar: ccedilla
Encoding: 231 231 98
Width: 859
VWidth: 910
Flags: HW
LayerCount: 2
Fore
SplineSet
395 619 m 0
 412 620 496 619 521 618 c 0
 581 613 628 606 669 592 c 0
 720 576 750 552 756 525 c 0
 759 515 759 512 755 507 c 0
 747 498 721 492 696 495 c 0
 678 497 665 501 660 507 c 0
 658 510 657 512 657 517 c 0
 656 523 652 533 647 539 c 0
 632 558 583 574 522 579 c 0
 485 583 415 584 394 581 c 0
 304 567 244 515 215 429 c 0
 207 406 202 382 198 352 c 0
 196 331 196 283 198 262 c 0
 203 223 211 192 224 162 c 0
 249 104 292 64 350 45 c 0
 365 40 377 37 394 34 c 0
 415 31 485 31 522 35 c 0
 583 40 632 57 647 76 c 0
 652 82 656 91 657 97 c 0
 657 102 658 104 660 107 c 0
 675 124 740 123 755 107 c 0
 759 102 759 99 756 89 c 0
 750 62 720 38 668 22 c 0
 642 14 605 6 574 2 c 0
 556 0 531 -3 526 -3 c 2
 522 -3 l 1
 524 -5 l 2
 530 -16 535 -30 535 -42 c 0
 535 -51 533 -65 529 -71 c 0
 519 -91 500 -105 473 -111 c 0
 458 -116 450 -116 431 -116 c 0
 416 -116 411 -116 404 -114 c 0
 378 -109 371 -95 390 -86 c 0
 395 -83 409 -80 414 -80 c 0
 418 -80 425 -73 429 -66 c 0
 437 -50 436 -30 426 -15 c 0
 420 -6 420 -6 400 -5 c 0
 314 0 245 23 195 63 c 0
 139 108 107 172 97 260 c 0
 95 281 95 333 97 354 c 0
 107 442 139 507 195 552 c 0
 243 591 310 613 395 619 c 0
EndSplineSet
EndChar

StartChar: odieresis
Encoding: 246 246 99
Width: 961
VWidth: 910
Flags: HW
LayerCount: 2
Fore
SplineSet
379 708 m 0
 413 713 449 707 458 694 c 0
 462 689 462 687 458 682 c 0
 446 667 394 660 361 671 c 0
 347 676 340 682 340 688 c 0
 340 691 344 696 349 699 c 0
 354 703 368 707 379 708 c 0
540 708 m 0
 574 713 610 707 619 694 c 0
 623 689 623 687 619 682 c 0
 607 667 555 660 522 671 c 0
 508 676 501 682 501 688 c 0
 501 691 505 696 510 699 c 0
 515 703 529 707 540 708 c 0
445 619 m 0
 458 620 528 619 544 618 c 0
 620 612 682 596 733 571 c 0
 766 555 788 538 812 515 c 0
 854 471 879 416 888 347 c 0
 890 329 890 286 888 268 c 0
 879 199 854 143 812 99 c 0
 788 76 766 60 733 44 c 0
 680 18 618 1 537 -4 c 0
 516 -6 445 -6 424 -4 c 0
 343 1 281 18 228 44 c 0
 195 60 173 76 149 99 c 0
 107 143 82 199 73 268 c 0
 71 286 71 329 73 347 c 0
 82 416 107 471 149 515 c 0
 173 538 195 555 228 571 c 0
 281 597 348 613 424 618 c 0
 433 619 442 619 445 619 c 0
529 581 m 0
 514 582 461 583 446 582 c 0
 410 580 377 573 350 565 c 0
 308 551 266 526 241 499 c 0
 204 459 182 408 174 345 c 0
 172 327 172 287 174 269 c 0
 182 206 204 156 241 116 c 0
 268 86 315 60 362 46 c 0
 383 41 408 36 434 34 c 0
 451 32 510 32 527 34 c 0
 576 39 614 48 651 66 c 0
 711 95 751 140 773 204 c 0
 784 238 788 268 788 308 c 0
 788 325 788 335 787 345 c 0
 779 408 757 459 720 499 c 0
 693 529 646 555 599 569 c 0
 578 574 554 579 529 581 c 0
EndSplineSet
EndChar

StartChar: udieresis
Encoding: 252 252 100
Width: 859
VWidth: 910
Flags: HW
LayerCount: 2
Fore
SplineSet
328 708 m 0
 362 713 398 707 407 694 c 0
 411 689 411 687 407 682 c 0
 395 667 343 660 310 671 c 0
 296 676 289 682 289 688 c 0
 289 691 293 696 298 699 c 0
 303 703 317 707 328 708 c 0
489 708 m 0
 523 713 559 707 568 694 c 0
 572 689 572 687 568 682 c 0
 556 667 504 660 471 671 c 0
 457 676 450 682 450 688 c 0
 450 691 454 696 459 699 c 0
 464 703 478 707 489 708 c 0
135 613 m 0
 160 617 190 612 200 602 c 2
 203 599 l 1
 203 444 l 2
 203 349 203 284 204 276 c 0
 209 196 233 135 276 92 c 0
 307 61 346 42 393 35 c 0
 405 33 410 33 436 33 c 0
 467 33 481 33 503 36 c 0
 553 43 597 66 622 94 c 0
 638 113 649 135 654 161 c 2
 656 170 l 1
 657 384 l 1
 658 599 l 1
 661 602 l 2
 676 618 738 619 755 602 c 2
 758 599 l 1
 758 308 l 1
 758 15 l 1
 755 13 l 2
 738 -4 675 -3 660 13 c 0
 657 17 657 16 657 26 c 2
 657 36 l 2
 656 36 653 35 648 33 c 0
 593 8 522 -5 435 -5 c 0
 349 -5 280 11 226 44 c 0
 193 64 165 93 145 126 c 0
 121 166 107 215 103 273 c 0
 102 283 102 345 102 443 c 2
 102 598 l 1
 105 602 l 2
 110 607 120 610 135 613 c 0
EndSplineSet
EndChar

StartChar: degree
Encoding: 176 176 101
Width: 708
VWidth: 910
Flags: HW
LayerCount: 2
Fore
SplineSet
303 818 m 0
 328 819 371 819 379 817 c 0
 387 814 394 813 398 810 c 0
 402 807 405 803 405 801 c 0
 405 798 402 794 398 791 c 2
 390 787 l 2
 379 783 373 783 341 782 c 0
 325 781 304 780 296 779 c 0
 217 772 169 743 155 693 c 0
 152 683 152 663 155 653 c 0
 169 604 217 573 295 566 c 0
 303 565 326 563 345 563 c 0
 363 562 384 563 389 562 c 0
 426 561 480 576 512 597 c 0
 537 613 554 641 556 667 c 0
 556 675 557 676 560 679 c 0
 565 685 577 689 596 691 c 0
 620 694 647 688 654 679 c 0
 658 675 657 675 657 670 c 0
 657 659 652 641 646 629 c 0
 642 621 633 608 626 600 c 0
 612 586 599 576 577 565 c 0
 522 538 452 522 386 524 c 0
 296 527 271 528 235 534 c 0
 184 541 137 558 108 577 c 0
 61 609 41 657 56 703 c 0
 66 736 96 766 138 785 c 0
 183 804 236 814 303 818 c 0
EndSplineSet
EndChar

StartChar: grave
Encoding: 96 96 102
Width: 253
VWidth: 910
Flags: HW
LayerCount: 2
Fore
SplineSet
111 818 m 0
 118 819 142 818 152 816 c 0
 186 811 211 798 231 779 c 0
 244 765 251 754 259 733 c 0
 272 701 279 657 279 609 c 0
 279 596 279 597 276 593 c 0
 273 589 265 586 255 583 c 0
 248 581 243 581 228 581 c 0
 212 581 208 581 202 583 c 0
 191 586 183 589 180 593 c 0
 177 597 177 596 177 608 c 0
 177 644 173 683 166 708 c 0
 157 739 144 761 129 773 c 0
 120 779 115 782 103 785 c 0
 86 788 76 794 76 800 c 0
 76 808 89 815 111 818 c 0
EndSplineSet
EndChar

StartChar: quotesingle
Encoding: 39 39 103
Width: 202
VWidth: 910
Flags: HW
LayerCount: 2
Fore
SplineSet
84 818 m 0
 109 822 139 816 149 806 c 2
 152 804 l 1
 152 700 l 1
 152 596 l 1
 149 593 l 2
 146 589 138 586 128 583 c 0
 121 581 117 581 102 581 c 0
 86 581 82 581 76 583 c 0
 65 586 57 589 54 593 c 2
 51 596 l 1
 51 699 l 1
 51 803 l 1
 54 806 l 2
 59 811 69 815 84 818 c 0
EndSplineSet
EndChar

StartChar: Aring
Encoding: 197 197 104
Width: 961
VWidth: 910
Flags: HW
LayerCount: 2
Fore
SplineSet
461 1075 m 0
 482 1077 503 1076 522 1071 c 0
 570 1062 598 1036 607 993 c 0
 609 985 609 981 609 965 c 0
 609 948 609 944 607 936 c 0
 596 886 560 859 495 854 c 0
 484 853 477 853 466 854 c 0
 401 859 365 886 354 936 c 0
 352 944 352 948 352 965 c 0
 352 981 352 985 354 993 c 0
 363 1036 392 1062 440 1071 c 0
 446 1073 456 1074 461 1075 c 0
498 1053 m 0
 493 1054 488 1055 481 1055 c 0
 441 1055 413 1027 408 981 c 0
 403 942 415 904 438 887 c 0
 468 865 510 870 534 898 c 0
 557 925 560 980 543 1015 c 0
 533 1035 519 1048 498 1053 c 0
430 818 m 0
 433 818 457 819 484 819 c 0
 531 818 535 818 542 816 c 0
 551 814 559 810 563 807 c 0
 566 804 885 22 885 18 c 0
 885 5 848 -4 816 1 c 0
 801 4 792 8 787 13 c 0
 785 15 767 61 722 168 c 2
 660 322 l 1
 481 322 l 1
 301 322 l 1
 239 168 l 2
 194 61 176 15 174 13 c 0
 169 8 160 4 145 1 c 0
 113 -4 76 5 76 18 c 0
 76 22 395 804 398 807 c 0
 403 812 415 816 430 818 c 0
563 561 m 2
 518 671 481 761 481 761 c 1
 481 761 444 671 399 561 c 2
 317 360 l 1
 399 360 l 1
 563 360 l 1
 644 360 l 1
 563 561 l 2
EndSplineSet
EndChar

StartChar: AE
Encoding: 198 198 105
Width: 1163
VWidth: 910
Flags: HW
LayerCount: 2
Fore
SplineSet
531 818 m 0
 538 819 1044 819 1052 818 c 0
 1078 814 1093 805 1084 795 c 0
 1080 790 1067 785 1052 783 c 0
 1047 782 966 782 839 782 c 2
 633 782 l 1
 633 605 l 1
 633 429 l 1
 814 429 l 2
 1007 429 1004 429 1018 424 c 0
 1043 417 1043 403 1018 396 c 0
 1004 391 1007 391 814 391 c 2
 633 391 l 1
 633 215 l 1
 633 37 l 1
 839 37 l 2
 966 37 1047 37 1052 36 c 0
 1073 33 1087 26 1087 19 c 0
 1087 10 1073 4 1051 1 c 0
 1046 0 961 0 804 0 c 2
 564 1 l 1
 556 3 l 2
 546 5 537 9 534 13 c 2
 532 15 l 1
 532 169 l 1
 532 322 l 1
 436 322 l 1
 341 322 l 1
 259 168 l 2
 213 83 175 14 174 12 c 0
 169 7 160 4 145 1 c 0
 113 -4 76 5 76 18 c 0
 76 20 142 144 287 413 c 0
 403 629 498 806 499 807 c 0
 504 812 516 816 531 818 c 0
532 360 m 1
 532 518 l 1
 532 676 l 1
 446 518 l 1
 361 360 l 1
 446 360 l 1
 532 360 l 1
EndSplineSet
EndChar

StartChar: Oslash
Encoding: 216 216 106
Width: 1163
VWidth: 910
Flags: HW
LayerCount: 2
Fore
SplineSet
533 824 m 0
 541 824 562 825 578 825 c 0
 700 825 806 804 883 765 c 2
 895 760 l 1
 911 776 l 2
 951 814 949 813 963 816 c 0
 998 825 1046 814 1041 798 c 0
 1041 797 1025 782 1000 757 c 0
 978 736 960 718 960 718 c 1
 960 718 963 715 967 712 c 0
 1038 651 1078 566 1090 457 c 0
 1092 435 1092 384 1090 362 c 0
 1085 321 1078 284 1066 252 c 0
 1036 172 986 113 912 69 c 0
 829 20 718 -5 582 -5 c 0
 462 -5 356 15 280 54 c 2
 269 59 l 1
 252 44 l 2
 212 6 214 7 200 4 c 0
 165 -5 117 5 122 21 c 0
 122 22 138 37 163 62 c 0
 185 83 204 101 204 101 c 1
 204 101 201 104 197 107 c 0
 126 168 85 253 73 362 c 0
 71 384 71 435 73 457 c 0
 77 489 81 513 89 541 c 0
 113 624 160 690 228 736 c 0
 305 788 406 818 533 824 c 0
618 786 m 0
 540 790 462 782 406 762 c 0
 307 728 239 665 202 573 c 0
 162 473 162 346 202 246 c 0
 216 213 235 181 256 156 c 2
 259 153 l 1
 553 434 l 2
 715 589 848 715 848 716 c 2
 848 716 845 719 840 722 c 0
 780 761 709 781 618 786 c 0
910 660 m 0
 907 663 906 666 905 666 c 0
 904 666 316 105 315 103 c 2
 315 103 318 100 323 97 c 0
 390 52 476 32 582 32 c 0
 712 32 809 64 883 130 c 0
 934 176 971 250 984 329 c 0
 1005 455 977 578 910 660 c 0
EndSplineSet
EndChar

StartChar: aring
Encoding: 229 229 107
Width: 859
VWidth: 910
Flags: HW
LayerCount: 2
Fore
SplineSet
410 870 m 0
 431 872 452 872 471 867 c 0
 519 858 547 831 556 788 c 0
 558 780 558 776 558 760 c 0
 558 743 558 739 556 731 c 0
 545 681 509 654 444 649 c 0
 433 648 426 648 415 649 c 0
 350 654 314 681 303 731 c 0
 301 739 301 743 301 760 c 0
 301 776 301 780 303 788 c 0
 312 831 341 858 389 867 c 0
 395 869 405 869 410 870 c 0
447 848 m 0
 442 849 437 850 430 850 c 0
 390 850 362 822 357 776 c 0
 352 737 364 700 387 683 c 0
 417 661 459 666 483 694 c 0
 506 721 509 775 492 810 c 0
 482 830 468 843 447 848 c 0
366 619 m 0
 391 620 464 620 481 619 c 0
 553 615 606 606 653 587 c 0
 685 574 707 560 725 541 c 0
 736 530 746 515 751 503 c 0
 752 501 753 498 755 496 c 2
 758 492 l 1
 758 254 l 1
 758 15 l 1
 755 13 l 2
 738 -4 675 -3 660 13 c 2
 657 16 l 1
 657 35 l 1
 657 53 l 1
 649 47 l 2
 638 41 617 30 604 25 c 0
 556 5 496 -5 428 -5 c 0
 317 -5 231 15 175 57 c 0
 137 86 113 127 104 176 c 0
 102 188 102 222 104 234 c 0
 118 310 165 361 251 390 c 0
 300 407 371 417 433 414 c 0
 497 412 525 414 570 425 c 0
 617 438 643 451 653 471 c 0
 657 477 657 482 653 492 c 0
 644 519 622 541 592 556 c 0
 565 569 534 576 494 581 c 0
 460 584 367 583 326 579 c 0
 275 575 225 564 212 553 c 0
 207 549 204 541 203 535 c 0
 203 530 202 529 199 527 c 0
 184 510 120 511 105 527 c 0
 101 532 101 535 104 543 c 0
 106 550 109 557 115 563 c 0
 128 577 150 586 188 596 c 0
 240 610 299 617 366 619 c 0
656 246 m 0
 657 254 657 285 657 331 c 2
 657 403 l 1
 652 401 l 2
 639 397 600 389 584 386 c 0
 542 378 503 375 461 377 c 0
 398 379 369 376 337 369 c 0
 299 359 264 339 243 315 c 0
 189 253 189 157 243 95 c 0
 262 73 294 54 330 43 c 0
 376 30 453 28 499 40 c 0
 536 49 573 70 596 95 c 0
 631 133 651 183 656 246 c 0
EndSplineSet
EndChar

StartChar: ae
Encoding: 230 230 108
Width: 961
VWidth: 910
Flags: HW
LayerCount: 2
Fore
SplineSet
248 613 m 0
 263 614 330 614 344 613 c 0
 411 606 461 587 492 557 c 2
 501 549 l 1
 504 553 l 2
 517 566 537 581 557 590 c 0
 623 623 718 623 785 590 c 0
 817 575 842 551 860 523 c 0
 884 487 900 444 906 390 c 0
 909 368 909 355 910 328 c 2
 910 304 l 1
 907 301 l 2
 901 296 891 291 876 289 c 0
 871 288 803 289 700 289 c 2
 532 289 l 1
 532 278 l 1
 536 222 540 189 552 154 c 0
 573 91 607 51 653 35 c 2
 662 33 l 1
 683 33 l 2
 706 33 717 33 732 36 c 0
 751 40 771 49 783 58 c 0
 798 71 807 88 809 107 c 0
 809 113 809 114 814 118 c 0
 821 125 837 129 860 129 c 0
 882 129 899 125 907 117 c 2
 910 114 l 1
 910 106 l 2
 907 74 885 44 848 26 c 0
 812 8 769 -1 709 -5 c 0
 685 -7 649 -6 634 -4 c 0
 587 3 551 19 520 44 c 0
 512 49 499 61 494 68 c 2
 492 71 l 1
 489 68 l 2
 474 49 450 31 425 18 c 0
 396 4 366 -2 330 -5 c 0
 314 -6 270 -6 250 -4 c 0
 234 -2 211 1 198 5 c 0
 115 25 66 73 51 149 c 0
 46 170 46 180 46 205 c 0
 46 230 46 239 51 260 c 0
 58 296 73 326 96 350 c 0
 130 385 182 406 251 413 c 0
 262 414 288 415 319 414 c 0
 334 414 338 414 346 416 c 0
 358 419 369 423 382 428 c 0
 406 437 421 451 427 470 c 0
 430 477 430 478 429 483 c 0
 425 506 411 531 396 545 c 0
 383 556 365 566 347 571 c 0
 332 576 321 576 296 577 c 0
 235 578 192 572 169 557 c 0
 159 551 154 543 152 532 c 0
 152 527 151 525 148 523 c 0
 133 506 69 507 54 523 c 0
 50 528 50 532 53 540 c 0
 58 560 75 576 106 588 c 0
 137 601 181 610 227 613 c 0
 236 614 245 613 248 613 c 0
689 573 m 0
 674 578 664 578 646 572 c 0
 627 565 607 549 593 533 c 0
 568 506 550 464 541 417 c 0
 536 394 534 370 532 337 c 2
 532 326 l 1
 670 326 l 1
 809 326 l 1
 809 337 l 2
 806 383 802 415 794 443 c 0
 774 512 738 557 689 573 c 0
434 380 m 0
 435 387 435 394 435 394 c 1
 435 394 432 393 428 391 c 0
 411 386 386 382 361 378 c 0
 347 377 319 376 287 377 c 0
 270 377 258 376 243 370 c 0
 189 352 157 306 148 236 c 0
 147 231 147 218 147 205 c 0
 147 192 147 179 148 174 c 0
 157 104 189 58 243 40 c 0
 258 35 268 33 292 32 c 0
 314 31 317 30 330 35 c 0
 363 46 394 74 410 106 c 0
 423 131 431 168 431 200 c 0
 431 206 430 207 433 210 c 2
 436 214 l 1
 435 227 l 2
 430 272 429 336 434 380 c 0
EndSplineSet
EndChar

StartChar: oslash
Encoding: 248 248 109
Width: 961
VWidth: 910
Flags: HW
LayerCount: 2
Fore
SplineSet
445 619 m 0
 458 620 528 619 544 618 c 0
 606 613 657 601 703 584 c 2
 716 579 l 1
 719 581 l 2
 721 582 728 588 734 594 c 0
 747 606 750 608 761 611 c 0
 788 618 825 614 836 602 c 0
 839 599 840 596 839 593 c 0
 839 591 826 580 811 565 c 2
 784 540 l 1
 791 533 l 2
 796 530 805 521 812 515 c 0
 854 471 879 416 888 347 c 0
 890 329 890 286 888 268 c 0
 879 199 854 143 812 99 c 0
 788 76 766 60 733 44 c 0
 680 18 618 1 537 -4 c 0
 516 -6 445 -6 424 -4 c 0
 358 1 305 12 259 30 c 2
 245 35 l 1
 242 34 l 2
 240 33 234 26 228 20 c 0
 215 8 211 7 200 4 c 0
 173 -3 136 1 125 13 c 0
 122 16 121 18 122 21 c 0
 122 23 135 34 150 49 c 2
 177 75 l 1
 170 81 l 2
 165 84 156 93 149 99 c 0
 107 143 82 199 73 268 c 0
 71 286 71 329 73 347 c 0
 82 416 107 471 149 515 c 0
 173 538 195 555 228 571 c 0
 281 597 348 613 424 618 c 0
 433 619 442 619 445 619 c 0
529 581 m 0
 514 582 461 583 446 582 c 0
 410 580 377 573 350 565 c 0
 308 551 266 526 241 499 c 0
 204 459 182 408 174 345 c 0
 172 327 172 287 174 269 c 0
 181 215 199 170 226 134 c 0
 229 130 232 127 232 127 c 2
 233 127 653 518 668 533 c 0
 672 537 672 537 670 538 c 0
 666 542 634 557 623 562 c 0
 595 572 564 578 529 581 c 0
735 481 m 0
 732 485 729 488 729 488 c 2
 727 488 290 79 289 77 c 0
 289 76 300 70 315 64 c 0
 349 48 387 38 434 34 c 0
 451 32 510 32 527 34 c 0
 576 39 614 48 651 66 c 0
 711 95 751 140 773 204 c 0
 784 238 788 268 788 308 c 0
 788 325 788 335 787 345 c 0
 780 399 762 445 735 481 c 0
EndSplineSet
EndChar
